<svg width="24" height="24" viewBox="0 0 24 24" fill="none" xmlns="http://www.w3.org/2000/svg">
<path d="M3.93491 11.2471L2.40226 5M3.93491 11.2471C3.59918 11.2471 3.27694 11.2153 3 11.02M3.93491 11.2471C4.39212 11.1438 4.79682 10.8714 5.16634 10.5M2.40226 5C2.2429 5.36822 2.1248 5.79158 2.05914 6.27773M2.40226 5C2.53068 4.70324 2.6859 4.44231 2.86204 4.21319M2.05914 6.27773C1.93402 7.20416 1.99936 8.3586 2.33267 9.79394C2.4872 10.4594 2.72054 10.823 3 11.02M2.05914 6.27773L3 11.02M2.86204 4.21319L4.5 11M2.86204 4.21319C3.01491 4.01435 3.18353 3.83948 3.36409 3.68596M3.36409 3.68596L5.16634 10.5M3.36409 3.68596C3.51711 3.55584 3.6787 3.44106 3.84653 3.34003M5.16634 10.5C5.31729 10.3483 5.46236 10.18 5.60275 10M5.60275 10L3.84653 3.34003M5.60275 10C5.73924 9.82499 5.87129 9.63886 6 9.446M3.84653 3.34003C4.0203 3.23542 4.20074 3.14554 4.38529 3.06863M4.38529 3.06863L6 9.446M4.38529 3.06863C4.58644 2.9848 4.79247 2.91637 5 2.86106M6 9.446C6.1631 9.20161 6.32083 8.9464 6.4754 8.68932M6.4754 8.68932L5 2.86106M6.4754 8.68932C6.61392 8.45892 6.74989 8.22701 6.88492 8M5 2.86106C5.20051 2.80761 5.40244 2.76642 5.60275 2.7354M5.60275 2.7354L6.88492 8M5.60275 2.7354C5.79546 2.70557 5.98667 2.68515 6.1737 2.67232M6.88492 8C7.01394 7.78309 7.1421 7.57066 7.27077 7.36831M7.27077 7.36831L6.1737 2.67232M7.27077 7.36831C7.38656 7.18622 7.50277 7.0123 7.62041 6.85063M6.1737 2.67232C6.31584 2.66257 6.45557 2.65721 6.5917 2.65541M6.5917 2.65541L7.62041 6.85063M6.5917 2.65541C6.73206 2.65356 6.86859 2.65551 7 2.66038M7.62041 6.85063C7.74494 6.6795 7.87107 6.52209 8 6.38325M7.62041 2.70626C7.43274 2.68542 7.2238 2.66867 7 2.66038M7.62041 2.70626L8.43566 6M7.62041 2.70626C7.82302 2.5973 8.02406 2.494 8.22349 2.39622M7 2.66038L8 6.38325M8 6.38325C8.14133 6.23107 8.28602 6.10119 8.43566 6M8.43566 6C8.61035 5.88188 8.79177 5.80285 8.98245 5.77306M8.98245 5.77306L8.22349 2.39622M8.98245 5.77306C9.18576 5.81654 9.40269 5.87186 9.63074 5.93968M8.22349 2.39622C8.37862 2.32016 8.53277 2.24745 8.68593 2.17802M8.68593 2.17802L9.63074 5.93968M8.68593 2.17802C8.86025 2.09901 9.03329 2.02425 9.20501 1.95367M9.63074 5.93968C9.82687 5.998 10.0312 6.06557 10.2422 6.1428M10.2422 6.1428L9.20501 1.95367M10.2422 6.1428C10.4381 6.21451 10.6396 6.29455 10.8457 6.38325M9.20501 1.95367C9.39992 1.87356 9.59313 1.79882 9.78462 1.72934M9.78462 1.72934L10.8457 6.38325M9.78462 1.72934C9.93826 1.6736 10.0908 1.62124 10.2422 1.57219M10.8457 6.38325C10.952 6.42904 11.0595 6.47715 11.1681 6.52761M11.6725 6.77586L10.4721 1.5M11.6725 6.77586C11.9448 6.91734 12.2215 7.07337 12.5 7.24463M11.6725 6.77586C11.5025 6.68749 11.3341 6.60479 11.1681 6.52761M10.4721 1.5C10.7069 1.42859 10.9389 1.36522 11.1681 1.30963M10.4721 1.5C10.3957 1.52321 10.3191 1.54727 10.2422 1.57219M11.1681 1.30963L12.5 7.24463M11.1681 1.30963C11.3913 1.25547 11.6119 1.2087 11.8296 1.1691M12.5 7.24463C12.7064 7.37156 12.9138 7.50686 13.1212 7.6508M11.1681 6.52761L10.2422 1.57219M11.8296 1.1691L13.1212 7.6508M11.8296 1.1691C12.0069 1.13686 12.1824 1.10937 12.3559 1.08652M13.1212 7.6508C13.3264 7.79331 13.5317 7.94429 13.7358 8.10402M12.3559 1.08652L13.7358 8.10402M12.3559 1.08652C12.5244 1.06433 12.6911 1.0465 12.8559 1.03293M13.7358 8.10402C13.9458 8.26832 14.1547 8.44186 14.3613 8.62495M14.3613 8.62495L12.8559 1.03293M14.3613 8.62495C14.649 8.87988 14.9322 9.1533 15.2082 9.446M12.8559 1.03293C13.0738 1.015 13.2885 1.00449 13.5 1.00116M13.5 1.00116L15.2082 9.446M13.5 1.00116C13.7424 0.997344 13.9806 1.00296 14.2144 1.01761M15.2082 9.446C15.4086 9.65861 15.6051 9.88139 15.7966 10.1146M15.7966 10.1146L14.2144 1.01761M15.7966 10.1146C16.0865 10.4678 16.3648 10.8449 16.6275 11.2471M14.2144 1.01761C14.4437 1.03199 14.6689 1.05508 14.8896 1.08652M14.8896 1.08652L16.6275 11.2471M14.8896 1.08652C15.097 1.11603 15.3004 1.15291 15.5 1.19684M16.6275 11.2471C16.7855 11.4889 16.9379 11.7398 17.0838 12M17.0838 12L15.5 1.19684M17.0838 12C17.3007 12.3869 17.5033 12.7943 17.6887 13.223M15.5 1.19684C15.7404 1.24976 15.975 1.31292 16.2039 1.3858M16.2039 1.3858L17.6887 13.223M16.2039 1.3858C16.5076 1.48255 16.8011 1.59644 17.0838 1.72622M17.6887 13.223C17.8294 13.5484 17.9602 13.8861 18.0798 14.2364M18.0798 14.2364L17.0838 1.72622M18.0798 14.2364C18.2412 14.709 18.3823 15.2045 18.5 15.7237M17.0838 1.72622C17.2387 1.79733 17.3904 1.87321 17.5388 1.95367M17.5388 1.95367L18.5 15.7237M17.5388 1.95367C17.7877 2.08863 18.0274 2.23647 18.2576 2.39622M18.5 15.7237C18.6617 16.437 18.7792 17.1951 18.8447 18M18.8447 18L18.2576 2.39622M18.8447 18C18.9967 17.8357 19.1428 17.6689 19.2832 17.5M18.2576 2.39622C18.4128 2.50396 18.5637 2.61712 18.7101 2.7354M19.2832 17.5L18.7101 2.7354M19.2832 17.5C19.3961 17.3643 19.5052 17.2271 19.6106 17.0887M18.7101 2.7354C18.9095 2.89641 19.1006 3.06691 19.2832 3.24618M19.2832 3.24618L19.6106 17.0887M19.2832 3.24618C19.4787 3.43794 19.6644 3.63974 19.8402 3.85067M19.6106 17.0887C19.838 16.7902 20.0482 16.4857 20.2417 16.1764M19.8402 3.85067L20 16.5M19.8402 3.85067C19.9971 4.03897 20.1461 4.23454 20.2869 4.43674M20.2869 4.43674L20.2417 16.1764M20.2869 4.43674C20.5217 4.77373 20.7338 5.12914 20.9223 5.5M20.2417 16.1764C20.3645 15.9803 20.4805 15.7821 20.5899 15.5823M20.5899 15.5823L20.9223 5.5M20.5899 15.5823C20.7095 15.3639 20.8211 15.1435 20.925 14.9215M20.9223 5.5C21.0289 5.70951 21.1279 5.92396 21.2192 6.1428M21.2192 6.1428L20.925 14.9215M21.2192 6.1428C21.4324 6.65381 21.6037 7.18878 21.7309 7.74091M20.925 14.9215L20.9223 15L21.1478 14.414M20.925 14.9215C21.0037 14.7532 21.0779 14.584 21.1478 14.414M21.1478 14.414C21.2137 14.2534 21.2757 14.0922 21.3338 13.9304M21.1478 14.414L21.3338 13.9304M21.3338 13.9304C22.0796 11.8534 22.1801 9.69024 21.7309 7.74091M21.3338 13.9304L21.7309 7.74091M13.4155 17.3373C14.471 17.339 14.9988 16.839 14.9988 15.339M12.5556 19C13.0301 19.7608 13.0171 20.4456 14.6667 19.634M18.8146 17C19.0572 18.1776 18.7819 19.2949 16.839 20.9916C14.6035 22.944 13.5637 23.9201 10.4444 21.8283M7.45797 13H3.58333M3.88803 13.1956C3.04031 12.7014 1.60247 13.0924 2.10334 14.9605C2.41566 16.1254 3.84341 16.2901 4.11111 15.5606M13.5555 13.4371C13.9073 13.2705 14.1389 13 14.7223 13.4371M21 14C21 15.6569 19.5822 17 17.8333 17C16.0844 17 14.6667 15.6569 14.6667 14C14.6667 12.3431 16.0844 11 17.8333 11C19.5822 11 21 12.3431 21 14ZM13.6111 14C13.6111 15.6569 12.1933 17 10.4444 17C8.69554 17 7.27778 15.6569 7.27778 14C7.27778 12.3431 8.69554 11 10.4444 11C12.1933 11 13.6111 12.3431 13.6111 14ZM11.5 14.5C11.5 14.7761 11.2637 15 10.9722 15C10.6807 15 10.4444 14.7761 10.4444 14.5C10.4444 14.2239 10.6807 14 10.9722 14C11.2637 14 11.5 14.2239 11.5 14.5ZM17.8333 14.5C17.8333 14.7761 17.597 15 17.3056 15C17.0141 15 16.7778 14.7761 16.7778 14.5C16.7778 14.2239 17.0141 14 17.3056 14C17.597 14 17.8333 14.2239 17.8333 14.5Z" stroke="white" stroke-linecap="round"/>
</svg>
