<svg width="24" height="24" viewBox="0 0 24 24" fill="none" xmlns="http://www.w3.org/2000/svg">
<path d="M7.63145 22.9859C7.33284 22.9517 6.85684 22.8904 6.27093 22.7248M7.63145 22.9859C8.12337 23.0422 8.71259 22.9276 9.29636 22.6892M7.63145 22.9859L9.29636 22.6892M1.43305 18.7253C1.50985 18.9094 1.57593 19.0655 1.63558 19.2006M1.43305 18.7253L9.68276 16.8344M1.43305 18.7253C1.35052 18.5275 1.27769 18.3097 1.21644 18.0758M6.90603 9.13359C6.33949 9.25611 5.82175 9.41852 5.34952 9.6143M6.90603 9.13359L7.0598 8.7708M6.90603 9.13359L22.6389 7.50391M7.59676 7.50391L7.32828 8.13735M7.59676 7.50391L22.9856 6M7.59676 7.50391C7.66347 7.30444 7.74986 7.06592 7.85712 6.80195M14.9762 2.51432L10.5801 3M14.9762 2.51432L20.094 1.31785M14.9762 2.51432L20.8159 1.61085M14.9762 2.51432C15.1834 2.25627 15.407 2.03837 15.6416 1.85545M14.9762 2.51432C14.5474 2.35413 14.1397 2.25157 13.7524 2.19872M20.094 1.31785C20.3541 1.39669 20.5945 1.49529 20.8159 1.61085M20.094 1.31785C19.7942 1.20056 19.3776 1.08929 18.8989 1.03483M13.4181 8.7708C13.1621 8.87753 12.7782 9.0759 12.5714 9.42279M13.4181 8.7708L5.34952 9.6143M13.4181 8.7708L22.5651 7.66623M13.4181 8.7708C13.5251 8.90419 13.6376 9.02467 13.7524 9.13359M7.98621 15.7329C8.18954 15.8378 8.69295 15.9644 9.07994 15.6317C9.15407 15.8109 9.26219 16.0464 9.40102 16.3165M7.98621 15.7329L1.08452 17.4338M7.98621 15.7329C7.8549 15.646 7.66303 15.4384 7.51541 15.0987M11.9882 19.6047L3.5 21.3216M11.9882 19.6047C11.9882 19.7374 11.9743 19.8694 11.948 20M11.9882 19.6047C11.8201 19.4812 11.6572 19.3455 11.5 19.2006M10.5101 22L6.27093 22.7248M10.5101 22C10.1339 22.2821 9.71653 22.5177 9.29636 22.6892M10.5101 22C10.7408 21.827 10.9561 21.6365 11.147 21.4326M6.27093 22.7248C5.93922 22.631 5.57228 22.5037 5.18235 22.329M5.18235 22.329L11.147 21.4326M5.18235 22.329C4.88696 22.1967 4.57839 22.0371 4.26194 21.8442M11.147 21.4326C11.3568 21.2085 11.5372 20.9683 11.6766 20.7173M11.6766 20.7173L4.26194 21.8442M11.6766 20.7173C11.805 20.486 11.8985 20.2455 11.948 20M4.26194 21.8442C4.13918 21.7693 4.01522 21.6895 3.8904 21.6042M3.5 21.3216C3.63084 21.4218 3.76109 21.5159 3.8904 21.6042M3.5 21.3216C3.26421 21.141 3.02649 20.9403 2.78888 20.7173M11.948 20L3.8904 21.6042M2.78888 20.7173C2.75471 20.6853 2.72055 20.6527 2.68639 20.6197L2.65478 20.5892C2.50641 20.4459 2.38737 20.331 2.287 20.227M2.78888 20.7173L11.5 19.2006M11.5 19.2006C11.2649 18.984 11.0426 18.7469 10.8345 18.5M10.8345 18.5L2.287 20.227M10.8345 18.5C10.6747 18.3104 10.5234 18.1151 10.3812 17.9186M2.287 20.227C2.13806 20.0726 2.0302 19.9424 1.92854 19.7795M1.92854 19.7795L10.3812 17.9186M1.92854 19.7795C1.83474 19.6292 1.74622 19.4511 1.63558 19.2006M10.3812 17.9186C10.2641 17.7569 10.1532 17.5944 10.0489 17.4338M10.0489 17.4338L1.63558 19.2006M10.0489 17.4338C9.91584 17.229 9.7935 17.0273 9.68276 16.8344M9.68276 16.8344C9.5783 16.6525 9.48415 16.4783 9.40102 16.3165M9.40102 16.3165L1.21644 18.0758M1.21644 18.0758C1.16338 17.8731 1.119 17.6584 1.08452 17.4338M1.08452 17.4338C1.05487 17.2407 1.03253 17.0404 1.01829 16.8344M7.51541 15.0987L1.01829 16.8344M7.51541 15.0987C7.44278 14.9316 7.38087 14.7325 7.34214 14.5M1.01829 16.8344C1.00283 16.6108 0.996914 16.3805 1.00153 16.1455M1.00153 16.1455L7.34214 14.5M1.00153 16.1455C1.00484 15.9764 1.01361 15.8049 1.02819 15.6317M7.34214 14.5C7.30287 14.2643 7.28744 13.9943 7.30886 13.6885C7.31811 13.5565 7.33655 13.4426 7.36264 13.3448M7.34214 14L1.02819 15.6317M1.02819 15.6317C1.04907 15.3837 1.08188 15.1322 1.12768 14.8793M1.12768 14.8793L7.36264 13.3448M1.12768 14.8793C1.16682 14.6632 1.21546 14.4461 1.27426 14.2294M7.36264 13.3448C7.43103 13.0885 7.55194 12.9432 7.69724 12.8732M7.69724 12.8732C8.00877 12.7232 8.43239 12.9198 8.6909 13.1122L10.8146 13.3448C10.7984 12.9787 10.8254 12.6568 10.8843 12.3747M7.69724 12.8732L1.27426 14.2294M1.27426 14.2294C1.36797 13.884 1.4875 13.5395 1.63558 13.2013M1.44304 13.6885L10.8843 12.3747M10.8843 12.3747C10.9435 12.0906 11.035 11.8468 11.147 11.6387M11.147 11.6387L1.63558 13.2013M11.147 11.6387C11.2503 11.447 11.371 11.2856 11.5 11.1509M1.63558 13.2013C1.72307 13.0014 1.82054 12.8037 1.92854 12.6094M1.92854 12.6094L11.5 11.1509M1.92854 12.6094C2.04373 12.402 2.1709 12.1985 2.31074 12M11.5 11.1509C11.6205 11.0251 11.7482 10.9226 11.8758 10.8405M11.8758 10.8405C12.1274 10.6785 12.3782 10.5957 12.5714 10.5696C12.533 10.482 12.503 10.3982 12.4806 10.3182M11.8758 10.8405L2.31074 12M2.31074 12C2.43105 11.8293 2.56074 11.6623 2.70023 11.5M2.70023 11.5L12.4806 10.3182M2.70023 11.5C2.84826 11.3278 3.00734 11.1607 3.17799 11M12.4806 10.3182C12.4351 10.156 12.4205 10.009 12.4297 9.8759M12.4297 9.8759L3.17799 11M12.4297 9.8759C12.4417 9.70223 12.4942 9.55218 12.5714 9.42279M3.17799 11C3.33633 10.8509 3.50462 10.7071 3.68329 10.5696M3.68329 10.5696L12.5714 9.42279M3.68329 10.5696C3.90875 10.396 4.15072 10.2323 4.41005 10.0802M13 9.13359L4.41005 10.0802M4.41005 10.0802C4.70098 9.90961 5.01374 9.75351 5.34952 9.6143M7.0598 8.7708L22.8145 7M7.0598 8.7708L7.32828 8.13735M22.8145 7C22.765 7.17692 22.7062 7.34567 22.6389 7.50391M22.8145 7C22.8689 6.80551 22.9121 6.60115 22.9431 6.39003M22.5651 7.66623C22.5035 7.79279 22.4362 7.91135 22.3634 8.02051C22.3058 8.11344 22.2445 8.20536 22.1795 8.29593M22.5651 7.66623C22.5907 7.61348 22.6153 7.55934 22.6389 7.50391M13.7524 9.13359L22.1795 8.29593M13.7524 9.13359C13.9281 9.30029 14.1094 9.43989 14.2856 9.55719M22.1795 8.29593C22.0622 8.45924 21.9329 8.61818 21.7912 8.7708M21.7912 8.7708L14.2856 9.55719M21.7912 8.7708C21.6348 8.93925 21.4634 9.09999 21.2767 9.25042M14.2856 9.55719C14.4844 9.68952 14.6766 9.79347 14.8468 9.8759M14.8468 9.8759C15.0357 9.96738 15.1975 10.0324 15.3112 10.0802C15.6547 10.1716 15.9859 10.243 16.3049 10.2961M14.8468 9.8759L21.2767 9.25042M21.2767 9.25042C21.0191 9.45797 20.7323 9.64588 20.4155 9.80725M20.4155 9.80725C19.3766 10.3366 18.0155 10.5805 16.3049 10.2961M20.4155 9.80725L16.3049 10.2961M7.32828 8.13735L22.9431 6.39003M22.9431 6.39003C22.9618 6.26227 22.9761 6.13203 22.9856 6M22.9856 6C22.9975 5.83567 23.0031 5.66854 23 5.5M7.85712 6.80195L23 5.5M7.85712 6.80195C7.97529 6.51111 8.11879 6.18937 8.28919 5.85491M23 5.5C22.997 5.3343 22.9865 5.16722 22.9681 5M22.9681 5L8.03315 6.39003M22.9681 5C22.9498 4.83304 22.9237 4.66596 22.8893 4.5M8.28919 5.85491L22.8893 4.5M8.28919 5.85491C8.39331 5.65054 8.50747 5.44142 8.63203 5.23169M22.8893 4.5C22.8544 4.33174 22.8111 4.16463 22.7589 4M22.7589 4L8.63203 5.23169M22.7589 4C22.7042 3.82759 22.6397 3.65789 22.5651 3.49241M8.63203 5.23169C8.71736 5.08801 8.80758 4.94405 8.90279 4.80115M8.90279 4.80115L22.5651 3.49241M8.90279 4.80115C9.03696 4.59975 9.18106 4.40044 9.3354 4.20694M22.5651 3.49241C22.4888 3.32334 22.4018 3.15867 22.3037 3M22.3037 3L9.3354 4.20694M22.3037 3C22.1989 2.83061 22.0814 2.66807 21.9505 2.51432M9.3354 4.20694C9.42813 4.0907 9.52455 3.97656 9.62473 3.86532M9.62473 3.86532L21.9505 2.51432M9.62473 3.86532C9.78773 3.68435 9.9607 3.51107 10.1439 3.34898M21.9505 2.51432C21.8149 2.35508 21.665 2.20529 21.5 2.06709M21.5 2.06709L10.1439 3.34898M21.5 2.06709C21.2955 1.89581 21.0679 1.74235 20.8159 1.61085M10.1439 3.34898C10.2833 3.22567 10.4287 3.10883 10.5801 3M10.5801 3C10.8425 2.8114 11.1232 2.64684 11.4228 2.51432M15.6416 1.85545C16.6738 1.05049 17.917 0.92313 18.8989 1.03483M15.6416 1.85545L18.8989 1.03483M13.7524 2.19872C12.8738 2.07886 12.0999 2.21478 11.4228 2.51432M13.7524 2.19872L11.4228 2.51432M10.3578 13.4468C10.6135 14.9018 11.879 15.8956 13.1842 15.6664C14.4895 15.4372 15.3403 14.0719 15.0845 12.6169C14.8288 11.1619 13.5633 10.1681 12.2581 10.3973C10.9528 10.6264 10.102 11.9917 10.3578 13.4468ZM10.3578 13.4468L8.13895 13.0869M16.1827 12.7079L15.1089 12.7822M15.5 13C15.9268 14.0957 16.8381 16.1395 15.8731 16.8334M16.5304 18.5C16.2381 18.8228 15.4229 19.2748 14.5 18.5M18.8502 13.5892C18.8838 13.7806 19.0663 13.9085 19.2578 13.8748M18.8502 13.5892C18.8165 13.3978 18.9445 13.2154 19.136 13.1818M18.8502 13.5892L19.5436 13.4674M19.2578 13.8748C19.4493 13.8412 19.5773 13.6588 19.5436 13.4674M19.2578 13.8748L19.136 13.1818M19.5436 13.4674C19.51 13.276 19.3275 13.1481 19.136 13.1818M12.7198 13.6368C12.7534 13.8282 12.9359 13.9561 13.1274 13.9224M12.7198 13.6368C12.6862 13.4454 12.8141 13.263 13.0056 13.2294M12.7198 13.6368L13.4133 13.515M13.1274 13.9224C13.3189 13.8888 13.4469 13.7064 13.4133 13.515M13.1274 13.9224L13.0056 13.2294M13.4133 13.515C13.3796 13.3236 13.1971 13.1957 13.0056 13.2294M20.1995 10C21.0688 11.658 21.8507 15.7088 18.3793 19.2027C14.9079 22.6966 11.1866 19.4198 9.75988 17.3446L8.75079 15.6019C8.33171 15.9721 7.41261 16.3051 7.08882 14.6762C6.76504 13.0474 7.40391 12.826 7.76382 12.9188C7.95893 12.9626 8.38648 13.156 8.53584 13.5793M16.2279 13.2593C16.4836 14.7143 17.7491 15.708 19.0543 15.4789C20.3596 15.2497 21.2104 13.8844 20.9546 12.4294C20.6989 10.9744 19.4334 9.98059 18.1282 10.2098C16.8229 10.4389 15.9721 11.8042 16.2279 13.2593Z" stroke="white" stroke-linecap="round"/>
</svg>
