<svg width="24" height="24" viewBox="0 0 24 24" fill="none" xmlns="http://www.w3.org/2000/svg">
<path d="M5.61122 12.3847C5.45283 12.534 5.30749 12.7344 5.19092 13C4.36838 11.8833 3.51564 10.3274 3.16529 8.76265M5.61122 12.3847L3.16529 8.76265M5.61122 12.3847C5.85208 12.1578 6.12311 12.049 6.36899 12.0085M3.16529 8.76265C3.06069 8.29553 3.00088 7.82762 3.00001 7.37039M3.00001 7.37039L6.36899 12.0085M3.00001 7.37039C2.99933 7.01441 3.03439 6.66489 3.11187 6.32725M6.36899 12.0085C6.59592 11.9712 6.80142 11.9921 6.94201 12.032C6.95366 11.8482 6.96842 11.6709 6.98614 11.5M6.98614 11.5L3.11187 6.32725M6.98614 11.5C7.01439 11.2276 7.05016 10.9713 7.09284 10.7303M3.11187 6.32725C3.17734 6.04193 3.2731 5.76509 3.4032 5.5M3.4032 5.5L7.09284 10.7303M3.4032 5.5C3.51187 5.27855 3.6445 5.0653 3.80344 4.86214M7.09284 10.7303C7.14857 10.4155 7.21609 10.1269 7.29399 9.86272M7.29399 9.86272L3.80344 4.86214M7.29399 9.86272C7.36912 9.60788 7.45392 9.37572 7.54715 9.16466M3.80344 4.86214C3.93871 4.68924 4.09304 4.52365 4.26788 4.36654M4.26788 4.36654L7.54715 9.16466M4.26788 4.36654C4.41036 4.23851 4.56646 4.11612 4.73696 4M7.54715 9.16466C7.64436 8.94457 7.75073 8.74742 7.86485 8.57144M7.86485 8.57144L4.73696 4M7.86485 8.57144C7.98446 8.38699 8.11258 8.22579 8.2476 8.08579M4.73696 4C4.91639 3.87779 5.11178 3.76253 5.32404 3.65495M5.32404 3.65495L8.2476 8.08579M5.32404 3.65495C5.4949 3.56836 5.67668 3.48674 5.86988 3.41049M8.2476 8.08579C8.38707 7.94116 8.5339 7.81914 8.6863 7.71749M8.6863 7.71749L5.86988 3.41049M8.6863 7.71749C8.84265 7.61319 9.00487 7.53031 9.17101 7.46642M5.86988 3.41049C6.02848 3.34789 6.19476 3.28891 6.36899 3.23376M6.36899 3.23376L9.17101 7.46642M6.36899 3.23376C6.56457 3.17185 6.77016 3.11477 6.98614 3.06281M9.17101 7.46642C9.34623 7.39905 9.52581 7.35278 9.7075 7.32476M6.98614 3.06281L9.7075 7.32476M6.98614 3.06281C7.16588 3.01958 7.35281 2.97989 7.54715 2.94393M9.7075 7.32476C9.91023 7.2935 10.1156 7.28495 10.3204 7.29514M10.3204 7.29514L7.54715 2.94393M10.3204 7.29514C10.5491 7.30652 10.777 7.34124 11 7.39378M7.54715 2.94393C7.74206 2.90786 7.94442 2.87554 8.15445 2.84714M8.15445 2.84714C8.28344 2.82969 8.41533 2.81373 8.55015 2.79929M8.15445 2.84714L11 7.39378M8.55015 2.79929L11.6924 7.61655M8.55015 2.79929C8.69694 2.73446 8.84701 2.67 9 2.60615M11 7.39378C11.2383 7.44994 11.4709 7.52645 11.6924 7.61655M12.5884 8.08579C12.3259 7.91419 12.0214 7.75038 11.6924 7.61655M12.5884 8.08579L9 2.60615M12.5884 8.08579C12.8172 8.07633 13.0351 8.07343 13.2426 8.07648M9 2.60615C9.16347 2.53793 9.33029 2.47041 9.5 2.40392M9.5 2.40392L13.2426 8.07648M9.5 2.40392C9.66409 2.33963 9.83088 2.2763 10 2.21421M13.2426 8.07648C13.4839 8.08004 13.7111 8.09166 13.9249 8.11039M13.9249 8.11039L10 2.21421M13.9249 8.11039C14.2528 8.13912 14.5492 8.18459 14.8168 8.24339M10 2.21421C10.1996 2.14091 10.4025 2.06935 10.608 2M10.608 2L14.8168 8.24339M10.608 2C10.8241 1.92704 11.0431 1.85653 11.2642 1.78901M14.8168 8.24339C15.0303 8.29031 15.2254 8.34573 15.4034 8.4079M15.4034 8.4079L11.2642 1.78901M15.4034 8.4079C15.8669 8.56972 16.2146 8.77728 16.4701 9M11.2642 1.78901C11.4502 1.7322 11.6377 1.67751 11.8262 1.62527M11.8262 1.62527L16.4701 9M11.8262 1.62527C11.9833 1.58175 12.1411 1.53993 12.2993 1.5M16.4701 9C16.9297 9.40055 17.0912 9.85009 17.0912 10.1706C17.1926 10.1047 17.2929 10.0481 17.392 10M17.392 10L12.2993 1.5M17.392 10C17.6012 9.89838 17.8047 9.83437 18 9.7999M12.2993 1.5C12.5321 1.44123 12.766 1.38656 13 1.33658M13 1.33658L18 9.7999M13 1.33658C13.2205 1.28949 13.4411 1.24656 13.6612 1.20831M18 9.7999C18.2593 9.75412 18.5042 9.76043 18.7287 9.7999M18.7287 9.7999L13.6612 1.20831M18.7287 9.7999C18.9542 9.83953 19.1592 9.91261 19.3377 10M13.6612 1.20831C13.8324 1.17855 14.0033 1.15161 14.1736 1.12774M14.1736 1.12774L19.3377 10M14.1736 1.12774C14.3893 1.09751 14.6039 1.07219 14.8168 1.05228M19.3377 10C19.5209 10.0897 19.6763 10.1945 19.7973 10.2936M19.7973 10.2936L14.8168 1.05228M19.7973 10.2936L20.2742 10M14.8168 1.05228C14.9705 1.03791 15.1233 1.02635 15.275 1.0178M15.275 1.0178L20.2742 10M15.275 1.0178C15.52 1.00397 15.762 0.997387 16 0.999996M20.2742 10C20.3254 9.83042 20.3738 9.66377 20.4193 9.5M20.4193 9.5L16 0.999996M20.4193 9.5C20.4919 9.23868 20.5573 8.9847 20.6157 8.73787M16 0.999996C16.2038 1.00223 16.4047 1.01078 16.6019 1.02611M16.6019 1.02611L20.6157 8.73787M16.6019 1.02611C16.8026 1.04172 16.9995 1.06437 17.192 1.09456M20.6157 8.73787C20.6761 8.48263 20.729 8.23505 20.7747 7.99493M20.7747 7.99493L17.192 1.09456M20.7747 7.99493C20.8324 7.69175 20.8785 7.40048 20.9137 7.12073M17.192 1.09456C17.4362 1.13287 17.6733 1.18333 17.9018 1.24698M17.9018 1.24698L20.9137 7.12073M17.9018 1.24698C18.1086 1.3046 18.3084 1.37303 18.5 1.45305M20.9137 7.12073C20.9634 6.72437 20.9911 6.35115 20.9982 6M20.9982 6L18.5 1.45305M20.9982 6C21.0053 5.6444 20.9913 5.31144 20.9577 5M18.5 1.45305C18.7573 1.56046 18.9999 1.68874 19.2254 1.83976M19.2254 1.83976C20.1553 2.46268 20.7926 3.47244 20.9577 5M19.2254 1.83976L20.9577 5M19.0181 15.5043C19.0181 18.8501 19.0359 20.0612 17.2818 21.7381C15.972 22.9902 13.2794 23.9312 10.3208 21.4217M15.0994 16.8771C15.7102 16.7752 16.8053 16.086 16.0724 14.1826M7.33634 16.4935C5.95341 15.7169 3.73382 13.809 5.91884 12.3903C6.21847 12.1817 6.92146 12.0565 7.33634 13.2249M12.0245 13.1772C12.0245 13.3771 11.857 13.5391 11.6505 13.5391M12.0245 13.1772C12.0245 12.9773 11.857 12.8152 11.6505 12.8152M12.0245 13.1772H11.2765M11.6505 13.5391C11.4439 13.5391 11.2765 13.3771 11.2765 13.1772M11.6505 13.5391V12.8152M11.2765 13.1772C11.2765 12.9773 11.4439 12.8152 11.6505 12.8152M15.6812 12.775C15.6812 14.2631 16.8718 15.4695 18.3406 15.4695C19.8093 15.4695 21 14.2631 21 12.775C21 11.2868 19.8093 10.0804 18.3406 10.0804C16.8718 10.0804 15.6812 11.2868 15.6812 12.775ZM15.6812 12.775H14.5174M18.7561 13.0967C18.7561 13.2966 18.5887 13.4587 18.3821 13.4587M18.7561 13.0967C18.7561 12.8968 18.5887 12.7348 18.3821 12.7348M18.7561 13.0967H18.0082M18.3821 13.4587C18.1756 13.4587 18.0082 13.2966 18.0082 13.0967M18.3821 13.4587V12.7348M18.0082 13.0967C18.0082 12.8968 18.1756 12.7348 18.3821 12.7348M8.96021 12.4935L7.19032 12.8191M16.2436 18.7246C15.8177 19.1957 14.6009 19.8552 13.1407 18.7246M14.5177 12.7348C14.5177 14.2451 13.2712 15.4695 11.7336 15.4695C10.196 15.4695 8.94952 14.2451 8.94952 12.7348C8.94952 11.2244 10.196 10 11.7336 10C13.2712 10 14.5177 11.2244 14.5177 12.7348Z" stroke="white" stroke-linecap="round"/>
</svg>
