<svg width="24" height="24" viewBox="0 0 24 24" fill="none" xmlns="http://www.w3.org/2000/svg">
<path d="M18.0614 9.3317C18.0614 10.1773 18.2777 12.208 18.2777 13.4177C18.4218 13.2656 18.5543 13.1286 18.6772 13M18.0614 9.3317C17.9865 9.3317 17.9118 9.33112 17.8373 9.32997M18.0614 9.3317L16.5 1.05912M18.0614 9.3317L17.1122 1.17585M9.9226 7.08771C9.92742 7.38396 9.89802 7.66824 9.84232 7.9393M9.9226 7.08771L8.39807 3.37034M9.9226 7.08771C10.119 7.21774 10.3782 7.37038 10.6924 7.53382M7.49632 11.283C7.49632 11.283 7.85008 12.3075 8.05258 14.6002M7.49632 11.283L4.38716 5.42501M7.49632 11.283C7.49632 11.283 7.70501 11.1427 8 10.8814M8.05258 14.6002C8.21508 16.4345 7.74882 16.08 7.49632 15.6734M8.05258 14.6002L3.78063 6.17568M7.49632 15.6734L3.31451 7.08771M7.49632 15.6734C7.00454 14.1434 6.3003 13.924 5.73917 14.1232M10.2264 3.18515C10.0792 3.17069 9.88159 3.16967 9.64591 3.18515M10.2264 3.18515L12 8.12964M10.2264 3.18515C10.3758 3.06217 10.5316 2.94208 10.6924 2.82554M14.8664 1.03641C14.6581 1.05653 14.4361 1.09474 14.2046 1.14915M14.8664 1.03641L17 9.29345M14.8664 1.03641C15.0553 1.01819 15.2402 1.00692 15.421 1.00235M3.31451 7.08771C3.13611 7.55931 3.026 8.08321 3.00406 8.66431M3.31451 7.08771C3.43892 6.75881 3.59654 6.45536 3.78063 6.17568M3.00406 8.66431C2.94576 10.2084 3.51 12.1563 5.07005 14.6002C5.23409 14.4105 5.47019 14.2188 5.73917 14.1232M3.00406 8.66431L5.73917 14.1232M3.78063 6.17568C3.95981 5.90344 4.16406 5.65373 4.38716 5.42501M4.38716 5.42501C4.56103 5.24675 4.74634 5.08125 4.94016 4.92777M8 10.8814L4.94016 4.92777M8 10.8814C8.12099 10.7742 8.2565 10.6466 8.39807 10.5M4.94016 4.92777C5.09912 4.8019 5.26379 4.68411 5.43256 4.57401M5.43256 4.57401L8.39807 10.5M5.43256 4.57401C5.58894 4.47199 5.74884 4.37657 5.91096 4.28743M8.39807 10.5C8.52069 10.373 8.64786 10.2318 8.7741 10.0771M8.7741 10.0771L5.91096 4.28743M8.7741 10.0771C8.87989 9.94746 8.98503 9.8084 9.08628 9.66043M5.91096 4.28743C6.05499 4.20823 6.20077 4.13399 6.3474 4.06449M6.3474 4.06449L9.08628 9.66043M6.3474 4.06449C6.52602 3.97983 6.70589 3.90219 6.88538 3.83117M9.08628 9.66043C9.20281 9.49013 9.31419 9.30802 9.41551 9.11486M9.41551 9.11486L6.88538 3.83117M9.41551 9.11486C9.50225 8.94951 9.58161 8.77606 9.65051 8.595M6.88538 3.83117C7.02341 3.77656 7.16122 3.72586 7.29805 3.67889M7.29805 3.67889L9.65051 8.595M7.29805 3.67889C7.49343 3.61183 7.68682 3.55238 7.87605 3.5M9.65051 8.595C9.72993 8.3863 9.79544 8.16748 9.84232 7.9393M9.84232 7.9393L7.87605 3.5M7.87605 3.5C8.05436 3.45065 8.22897 3.40758 8.39807 3.37034M8.39807 3.37034C8.58741 3.32865 8.76984 3.29428 8.94283 3.26658M8.94283 3.26658L10.6924 7.53382M8.94283 3.26658C9.20108 3.22524 9.43827 3.19879 9.64591 3.18515M10.6924 7.53382C10.9021 7.64292 11.1364 7.75685 11.3928 7.87208M9.64591 3.18515L11.3928 7.87208M11.3928 7.87208C11.5833 7.95769 11.786 8.04402 12 8.12964M12 8.12964C12.1957 8.20791 12.4007 8.28559 12.6145 8.36157M10.6924 2.82554L12.6145 8.36157M10.6924 2.82554C10.8469 2.71355 11.006 2.60485 11.1685 2.5M12.6145 8.36157C12.7821 8.4211 12.9549 8.47959 13.1328 8.53651M11.1685 2.5L13.1328 8.53651M11.1685 2.5C11.3322 2.39428 11.4994 2.29249 11.6687 2.19522M13.1328 8.53651C13.3068 8.59223 13.4857 8.64644 13.669 8.69865M13.669 8.69865L11.6687 2.19522M13.669 8.69865C13.8655 8.75459 14.067 8.80824 14.2732 8.85899M11.6687 2.19522C11.8153 2.11096 11.9634 2.03009 12.1123 1.953M12.1123 1.953L14.2732 8.85899M12.1123 1.953C12.3005 1.85561 12.4897 1.76426 12.6784 1.67972M14.2732 8.85899C14.4669 8.90664 14.6647 8.95174 14.8664 8.99377M14.8664 8.99377L12.6784 1.67972M14.8664 8.99377C15.0482 9.03167 15.2332 9.06708 15.421 9.09963M12.6784 1.67972C12.8433 1.60588 13.0077 1.53724 13.1705 1.47432M13.1705 1.47432L15.421 9.09963M13.1705 1.47432C13.3388 1.40933 13.5054 1.35043 13.669 1.29822M15.421 9.09963C15.5944 9.12969 15.7703 9.15731 15.9485 9.1822M15.9485 9.1822L13.669 1.29822M15.9485 9.1822C16.13 9.20757 16.3139 9.2301 16.5 9.24949M13.669 1.29822C13.8518 1.23994 14.0308 1.18998 14.2046 1.14915M14.2046 1.14915L16.5 9.24949M16.5 9.24949C16.665 9.26669 16.8317 9.28142 17 9.29345M17 9.29345C17.1375 9.30328 17.276 9.31132 17.4154 9.31744M15.421 1.00235L17.4154 9.31744M15.421 1.00235C15.6357 0.99692 15.8447 1.00095 16.0478 1.014M17.4154 9.31744C17.5551 9.32358 17.6957 9.32779 17.8373 9.32997M17.8373 9.32997L16.0478 1.014M16.0478 1.014C16.2019 1.02391 16.3526 1.03901 16.5 1.05912M16.5 1.05912C16.711 1.08793 16.9152 1.12702 17.1122 1.17585M17.1122 1.17585C17.3026 1.22304 17.4865 1.27933 17.6637 1.34423M17.6637 1.34423L18.6772 13M17.6637 1.34423C17.8394 1.40862 18.0086 1.48148 18.1711 1.56235M18.6772 13C18.8154 12.8553 18.9417 12.7213 19.059 12.5883M19.059 12.5883L18.1711 1.56235M19.059 12.5883C19.22 12.406 19.3643 12.2257 19.5 12.0227M18.1711 1.56235C18.3477 1.65019 18.5164 1.74747 18.6772 1.8536M18.6772 1.8536L19.5 12.0227M18.6772 1.8536C18.9099 2.00728 19.126 2.17949 19.325 2.36841M19.5 12.0227C19.6049 11.8658 19.7048 11.6954 19.8033 11.5M19.8033 11.5L19.325 2.36841M19.8033 11.5C19.9307 11.2473 20.0559 10.9528 20.187 10.5919M19.325 2.36841C19.4757 2.51147 19.6166 2.66412 19.7475 2.82554M19.7475 2.82554L20.187 10.5919M19.7475 2.82554C19.9683 3.09763 20.1608 3.39466 20.3243 3.7128M20.187 10.5919C20.2765 10.3455 20.3688 10.0681 20.4665 9.7519M20.4665 9.7519C20.5209 9.57567 20.577 9.38737 20.6352 9.18566C21.2202 7.16007 21.0909 5.20438 20.3243 3.7128M20.4665 9.7519L20.3243 3.7128M7.57139 18.0923C8.21362 21.9906 12.5224 24.7939 15.6322 21.6359C18.742 18.478 18.1193 12.6974 17.7872 10M4.99974 14C4.62254 14.9499 5.1049 18.0273 7.57143 18.0273M17.7857 17.53C18.5991 17.1894 19.8518 15.7855 19.6309 13.765M12.4997 20C13.4997 20.5 13.4997 19.5 14.3572 18.9508M15.781 14.8407C15.781 14.9742 15.6722 15.0824 15.538 15.0824M15.781 14.8407C15.781 14.7072 15.6722 14.599 15.538 14.599M15.781 14.8407H15.2949M15.538 15.0824C15.4037 15.0824 15.2949 14.9742 15.2949 14.8407M15.538 15.0824V14.599M15.2949 14.8407C15.2949 14.7072 15.4037 14.599 15.538 14.599M10.9201 14.9616C10.9201 15.0951 10.8113 15.2033 10.6771 15.2033M10.9201 14.9616C10.9201 14.8281 10.8113 14.7199 10.6771 14.7199M10.9201 14.9616H10.4341M10.6771 15.2033C10.5429 15.2033 10.4341 15.0951 10.4341 14.9616M10.6771 15.2033V14.7199M10.4341 14.9616C10.4341 14.8281 10.5429 14.7199 10.6771 14.7199M9.28544 13.1752C9.403 12.8751 9.91116 12.3199 10.9997 12.5M14.7854 12.5C15.045 12.3392 15.7516 12.114 16.4997 12.5M12.8428 14.7595C12.7606 15.4383 12.7035 16.8149 13.1429 16.8907" stroke="black" stroke-linecap="round"/>
</svg>
