<svg width="24" height="24" viewBox="0 0 24 24" fill="none" xmlns="http://www.w3.org/2000/svg">
<path d="M19.5 10.3848L19.4437 10.8816H19.4437L19.5 10.3848ZM4.5 10.3844L4.69788 10.8435L4.7178 10.835L4.7369 10.8247L4.5 10.3844ZM6.62696 18.9811L6.62775 18.4811H6.62696V18.9811ZM15.0166 12.5385L14.5193 12.4865L15.4714 12.7461L15.0166 12.5385ZM19.5056 10.4595C19.547 10.7325 19.8018 10.9203 20.0748 10.879C20.3479 10.8376 20.5357 10.5828 20.4944 10.3098L19.5056 10.4595ZM13.5528 8.77639C13.4293 9.02338 13.5294 9.32372 13.7764 9.44721C14.0234 9.57071 14.3237 9.4706 14.4472 9.22361L13.5528 8.77639ZM6.27259 6.13309C6.06995 6.32069 6.05776 6.63704 6.24535 6.83968C6.43295 7.04231 6.7493 7.0545 6.95194 6.86691L6.27259 6.13309ZM18.9575 18.4845C18.6824 18.508 18.4783 18.75 18.5018 19.0252C18.5253 19.3003 18.7673 19.5043 19.0425 19.4809L18.9575 18.4845ZM15.9992 19.4959C16.2754 19.4963 16.4996 19.2728 16.5 18.9967C16.5004 18.7205 16.2769 18.4963 16.0008 18.4959L15.9992 19.4959ZM7.62605 10.4993C7.9018 10.5139 8.13721 10.3023 8.15184 10.0265C8.16648 9.75074 7.9548 9.51534 7.67905 9.5007L7.62605 10.4993ZM1.35355 0.646447C1.15829 0.451184 0.841709 0.451184 0.646447 0.646447C0.451184 0.841709 0.451184 1.15829 0.646447 1.35355L1.35355 0.646447ZM22.6464 23.3536C22.8417 23.5488 23.1583 23.5488 23.3536 23.3536C23.5488 23.1583 23.5488 22.8417 23.3536 22.6464L22.6464 23.3536ZM16.3743 6.96317C15.9706 6.96317 15.5768 7.02846 15.2398 7.11128L15.4784 8.08239C15.763 8.01246 16.0736 7.96317 16.3743 7.96317V6.96317ZM15.7848 7.33454C14.7382 5.63605 12.7722 4.5 10.5318 4.5V5.5C12.4349 5.5 14.074 6.46433 14.9334 7.85914L15.7848 7.33454ZM23.5 14.8911C23.5 12.6315 22.0681 10.1724 19.5563 9.88799L19.4437 10.8816C21.2791 11.0895 22.5 12.9473 22.5 14.8911H23.5ZM4.30212 9.9252C3.00383 10.4847 2.04602 11.1591 1.41422 11.9916C0.775767 12.8328 0.5 13.7961 0.5 14.8722H1.5C1.5 13.979 1.72423 13.2372 2.21078 12.5961C2.70398 11.9463 3.49617 11.3614 4.69788 10.8435L4.30212 9.9252ZM0.5 14.8722C0.5 17.4531 2.728 19.4811 5.40813 19.4811V18.4811C3.21291 18.4811 1.5 16.8357 1.5 14.8722H0.5ZM5.40813 19.4811H6.62696V18.4811H5.40813V19.4811ZM19.5563 9.88799C18.1261 9.72602 15.6883 9.86374 14.5618 12.3308L15.4714 12.7461C16.3117 10.9059 18.1172 10.7314 19.4437 10.8816L19.5563 9.88799ZM20.4944 10.3098C20.4715 10.1585 20.4393 10.0099 20.3984 9.86463L19.4358 10.1354C19.4656 10.2413 19.489 10.3494 19.5056 10.4595L20.4944 10.3098ZM20.3984 9.86463C19.9252 8.18183 18.2995 6.96317 16.3743 6.96317V7.96317C17.8817 7.96317 19.0918 8.91221 19.4358 10.1354L20.3984 9.86463ZM15.5139 12.5904C15.5528 12.2185 15.7923 11.6129 16.4292 11.1413C17.0583 10.6755 18.1224 10.3072 19.8629 10.4971L19.9713 9.50295C18.0455 9.29284 16.7123 9.68735 15.8342 10.3376C14.9639 10.982 14.5863 11.8456 14.5193 12.4865L15.5139 12.5904ZM15.1467 7.1442C14.7775 7.31746 14.0117 7.85857 13.5528 8.77639L14.4472 9.22361C14.7883 8.54143 15.368 8.14499 15.5715 8.04947L15.1467 7.1442ZM10.5318 4.5C8.87121 4.5 7.36529 5.12149 6.27259 6.13309L6.95194 6.86691C7.85912 6.02705 9.12218 5.5 10.5318 5.5V4.5ZM19.0425 19.4809C21.5153 19.2701 23.5 17.3253 23.5 14.8911H22.5C22.5 16.7448 20.9762 18.3124 18.9575 18.4845L19.0425 19.4809ZM6.62617 19.4811L15.9992 19.4959L16.0008 18.4959L6.62775 18.4811L6.62617 19.4811ZM4.7369 10.8247C4.94912 10.7105 5.34788 10.6061 5.88965 10.5437C6.41614 10.4831 7.02686 10.4675 7.62605 10.4993L7.67905 9.5007C7.03129 9.46633 6.3641 9.48243 5.77523 9.55026C5.20165 9.61633 4.6476 9.73719 4.2631 9.94406L4.7369 10.8247ZM0.646447 1.35355L22.6464 23.3536L23.3536 22.6464L1.35355 0.646447L0.646447 1.35355Z" fill="black"/>
</svg>
