<svg width="24" height="24" viewBox="0 0 24 24" fill="none" xmlns="http://www.w3.org/2000/svg">
<path d="M16.4042 4.66146C14.8668 4.66146 11.7153 5.47511 11.4078 8.72974C11.1003 11.9844 8.46125 12.2556 7.18013 11.9844C8.33313 11.9844 10.716 12.4707 11.0235 15.7253C11.3309 18.9799 15.2512 19.7141 16.7885 19.7141M1.02721 10.7445C0.906673 10.0603 1.12508 8.72974 2.95243 8.72974C5.25844 8.72974 7.18013 8.72974 7.18013 10.7639C7.18013 12.798 7.56446 16.4595 5.64279 16.0527C3.72112 15.6458 1.03076 16.4595 1.03076 14.8322V10.7834C1.03076 10.77 1.02953 10.7576 1.02721 10.7445ZM16.8157 3.01471C16.6952 2.33055 16.9136 1 18.7409 1C21.0469 1 22.9686 1 22.9686 3.03414C22.9686 5.06828 23.353 8.72974 21.4313 8.32291C19.5096 7.91608 16.8193 8.72974 16.8193 7.10243V3.05367C16.8193 3.04027 16.818 3.02788 16.8157 3.01471ZM16.8157 17.6605C16.6952 16.9764 16.9136 15.6458 18.7409 15.6458C21.0469 15.6458 22.9686 15.6458 22.9686 17.68C22.9686 19.7141 23.353 23.3756 21.4313 22.9687C19.5096 22.5619 16.8193 23.3756 16.8193 21.7483V17.6995C16.8193 17.6861 16.818 17.6737 16.8157 17.6605Z" stroke="white" stroke-linecap="round"/>
</svg>
