<svg width="24" height="24" viewBox="0 0 24 24" fill="none" xmlns="http://www.w3.org/2000/svg">
<path d="M16.2345 2.08658L15.8524 5.37776C15.8401 5.48376 15.8967 5.58561 15.992 5.63367C18.9597 7.1305 21 10.2443 21 13.8429C21 18.9002 16.9706 23 12 23C7.02944 23 3 18.9002 3 13.8429C3 10.5245 4.73494 7.61828 7.33228 6.01213C7.42538 5.95456 7.47271 5.84435 7.44758 5.73781L6.83377 3.13562M8.22906 1.16093C11.4909 0.894611 17.5923 0.767032 16.0119 2.37542C16 2.38758 15.9879 2.39846 15.9728 2.40634C15.4943 2.65549 11.5984 3.14624 8.91014 3.01905M4 15.9604L19.4667 18.093M4 15.9604C4.0068 15.7737 4.08353 15.5627 4.26644 15.3861M4 15.9604C4.01067 16.0736 4.02691 16.1949 4.04919 16.3232M19.4667 18.093C19.5531 17.9454 19.6347 17.7996 19.7113 17.6566M19.4667 18.093C19.4017 18.2039 19.3339 18.3159 19.2633 18.4286M19.7113 17.6566L17.3333 17.2857L17.6115 17.238M19.7113 17.6566C19.7786 17.5306 19.8422 17.4068 19.9018 17.2857M18.6708 17.0562C19.0134 16.9794 19.3434 16.8867 19.6592 16.7778C19.8711 16.7049 20.0736 16.9265 19.9738 17.1369C19.9504 17.186 19.9264 17.2356 19.9018 17.2857M18.6708 17.0562L17.6115 17.238M18.6708 17.0562L19.9018 17.2857M18.6708 17.0562C18.3297 17.1326 17.9761 17.1932 17.6115 17.238M17.6115 17.238C15.1898 17.5355 12.2829 17.1371 9.33333 16.0653M9.33333 16.0653C9.04888 15.9619 8.76403 15.8523 8.47918 15.7364C5.934 14.7011 4.74173 14.9274 4.26644 15.3861M9.33333 16.0653L4.26644 15.3861M4.11535 16.6474L19.051 18.7567M4.11535 16.6474C4.08917 16.5352 4.0672 16.4269 4.04919 16.3232M4.11535 16.6474C4.15177 16.8035 4.19635 16.9672 4.24977 17.1369M19.051 18.7567C19.1243 18.647 19.1951 18.5375 19.2633 18.4286M19.051 18.7567C18.9559 18.8992 18.8564 19.0421 18.7527 19.1848M19.2633 18.4286L4.04919 16.3232M4.24977 17.1369L18.7527 19.1848M4.24977 17.1369C4.29403 17.2774 4.34436 17.4221 4.40116 17.5698M18.7527 19.1848C18.6401 19.3396 18.5225 19.4942 18.4 19.6474M18.4 19.6474L4.40116 17.5698M18.4 19.6474C18.2841 19.7924 18.1638 19.9363 18.039 20.0782M4.40116 17.5698C4.46678 17.7405 4.54103 17.9154 4.62452 18.093M4.62452 18.093L18.039 20.0782M4.62452 18.093C4.70156 18.2568 4.78647 18.423 4.87972 18.5902M18.039 20.0782C17.9024 20.2338 17.7605 20.387 17.6134 20.5369M17.6134 20.5369L4.87972 18.5902M17.6134 20.5369C17.4625 20.6905 17.3063 20.8406 17.1447 20.9861M4.87972 18.5902C4.95556 18.7263 5.03691 18.8631 5.12404 19M5.12404 19L17.1447 20.9861M5.12404 19C5.22377 19.1567 5.33106 19.3136 5.44629 19.4697M17.1447 20.9861C16.992 21.1235 16.8345 21.2567 16.6723 21.3848M16.6723 21.3848L5.44629 19.4697M16.6723 21.3848C16.5148 21.5092 16.3527 21.6288 16.1863 21.7427M5.44629 19.4697C5.581 19.6522 5.72656 19.8336 5.8836 20.0125M5.8836 20.0125L16.1863 21.7427M5.8836 20.0125C6.00676 20.1528 6.13697 20.2915 6.27454 20.4279M16.1863 21.7427C15.9859 21.8799 15.7792 22.0087 15.5661 22.1278M15.5661 22.1278L6.27454 20.4279M15.5661 22.1278C15.3713 22.2366 15.1713 22.3373 14.9661 22.4286M6.27454 20.4279C6.44901 20.601 6.63531 20.7703 6.83405 20.9346M6.83405 20.9346L14.9661 22.4286M6.83405 20.9346C7.10941 21.1621 7.40863 21.3798 7.73333 21.5837M14.9661 22.4286C14.7501 22.5247 14.5283 22.6104 14.3008 22.6844M14.3008 22.6844L7.73333 21.5837M14.3008 22.6844C13.9063 22.8128 13.4947 22.9058 13.0667 22.9563M7.73333 21.5837C8.044 21.7788 8.37799 21.9613 8.73671 22.1278M8.73671 22.1278C9.35759 22.4159 10.0526 22.6561 10.8289 22.8305C11.6178 23.0078 12.3644 23.0392 13.0667 22.9563M8.73671 22.1278L13.0667 22.9563" stroke="white" stroke-linecap="round"/>
</svg>
