<svg width="24" height="24" viewBox="0 0 24 24" fill="none" xmlns="http://www.w3.org/2000/svg">
<path d="M1 13.4192C3.17337 10.6707 6.40556 5.91256 8.55107 6.00122C10.6966 6.08988 11.4768 7.24247 11.839 8.57239C12.1278 9.63257 11.6105 9.54827 11.3127 9.37221C11.3106 9.37095 11.3085 9.36946 11.3066 9.36785C9.32473 7.69277 8.3652 8.78949 8.13311 9.54766C7.73188 11.7937 9.44271 12.8322 11.0031 13.8329C12.1358 14.5594 12.0648 15.7348 11.9203 16.2606C11.9102 16.2973 11.8643 16.3026 11.8422 16.2724C9.08957 12.5188 5.77789 15.8102 3.31977 15.0646C3.28935 15.0554 3.25884 15.0804 3.26029 15.1139C3.29171 15.843 3.24907 17.3362 2.83901 18M23 13.4192C20.8266 10.6707 17.5944 5.91256 15.4489 6.00122C13.3034 6.08988 12.5232 7.24247 12.161 8.57239C11.8722 9.63257 12.3895 9.54827 12.6873 9.37221C12.6894 9.37095 12.6915 9.36946 12.6934 9.36785C14.6753 7.69277 15.6348 8.78949 15.8669 9.54766C16.2681 11.7937 14.5573 12.8322 12.9969 13.8329C11.8642 14.5594 11.9352 15.7348 12.0797 16.2606C12.0898 16.2973 12.1357 16.3026 12.1578 16.2724C14.9104 12.5188 18.2221 15.8102 20.6802 15.0646C20.7107 15.0554 20.7412 15.0804 20.7397 15.1139C20.7083 15.843 20.7509 17.3362 21.161 18" stroke="black" stroke-linecap="round"/>
</svg>
