<svg width="24" height="24" viewBox="0 0 24 24" fill="none" xmlns="http://www.w3.org/2000/svg">
<path d="M8.50175 18.6542C8.91368 18.7416 10.0824 18.801 10.3123 18.1299M9.10511 17.1865C9.79486 17.7894 10.887 18.7593 11.4618 17.9729L11.8066 17.4486M9.10511 15.5613C9.89066 16.2428 12.3009 17.8785 13.3586 17.2913C13.5502 17.1777 13.9391 16.8142 13.9621 16.269M11.0015 14.6438C11.9691 15.334 14.1054 16.5678 14.9101 15.9806C15.7148 15.3934 14.8813 14.5826 14.364 14.2506L10.8866 11.6817M1 12.1537C1.4311 12.3602 1.90672 12.8958 2.06336 13.3857C2.26455 14.0148 2.82976 14.5565 3.06926 14.7225M9.62187 8.64143C9.04708 8.43173 7.43767 8.00708 6.17313 8.19581C4.90858 8.38454 5.02355 8.01232 4.42001 7.69776L1 5.78424M15.4848 7.88098L14.2203 8.48389C10.1967 7.09986 7.40922 10.0041 6.51829 11.6293C6.21173 12.0224 5.81704 12.8822 6.69072 13.1758C7.56441 13.4694 9.04756 11.9179 9.67983 11.1053C11.3812 12.3216 13.4926 11.7519 14.3356 11.2888M15.3411 15.273C15.8699 15.1472 16.7493 14.4342 17.123 14.0934L18.5887 13.3856M20.2985 5L17.3095 7.0708C13.5159 9.71829 17.2233 12.6891 18.6028 13.3619L23 10.793M8.12791 18.8904C8.26203 18.8205 8.53601 18.4867 8.55901 17.7108C8.582 16.9349 7.52826 16.8458 7.35194 17.3438C7.27619 17.5578 7.08994 18.0447 6.95092 18.2808C6.74841 18.7069 7.47409 19.2312 8.12791 18.8904ZM5.62729 17.2913C5.1962 17.7369 5.20769 18.6334 6.17334 18.4447C7.13899 18.2559 7.46551 16.8981 7.35166 16.6622C7.26545 16.4835 6.9838 16.2072 6.54696 16.5311C6.11011 16.8551 5.76543 17.1485 5.62729 17.2913ZM3.98944 16.1642C3.55834 16.5312 3.50661 17.3753 4.56423 17.3962C5.62185 17.4172 6.17365 16.8458 6.31734 16.5574C6.48978 16.2429 6.65072 15.619 5.91499 15.4303C5.17926 15.2416 4.32473 15.841 3.98944 16.1642ZM2.49479 15.1944C2.83008 14.8536 3.78232 14.235 4.90891 14.4867C6.0355 14.7383 5.09093 15.4478 4.47782 15.7711C3.87429 16.0769 2.59825 16.5313 2.32235 15.9021C2.28403 15.7798 2.26487 15.467 2.49479 15.1944Z" stroke="white" stroke-linecap="round"/>
</svg>
