<svg width="237" height="301" viewBox="0 0 237 301" fill="none" xmlns="http://www.w3.org/2000/svg">
<g clip-path="url(#clip0_31_39)">
<path d="M97.0967 25.3342L94.8195 12.5803" stroke="#EDEDED" stroke-width="2" stroke-linecap="round"/>
<path d="M85.85 29.2811L70.916 15.3805" stroke="#EDEDED" stroke-width="2" stroke-linecap="round"/>
<path d="M79.9168 40.1273L70.8902 35.1392" stroke="#EDEDED" stroke-width="2" stroke-linecap="round"/>
<path d="M151.093 272.529L144.389 267.043" stroke="#EDEDED" stroke-width="2" stroke-linecap="round"/>
<path d="M151.093 290.661L139.817 283.804" stroke="#EDEDED" stroke-width="2" stroke-linecap="round"/>
<path d="M151.093 281.061L136.161 270.243" stroke="#EDEDED" stroke-width="2" stroke-linecap="round"/>
<path d="M199.091 1C195.833 2.10948 190.371 5.89023 194.59 12.1375C198.777 18.3386 202.551 13.1117 203.948 9.65377C203.969 9.60215 203.982 9.55019 203.987 9.49476C204.181 7.42794 203.701 3.70191 200.249 4.71247C196.75 5.7366 198.019 8.38228 199.091 9.5771" stroke="#EDEDED" stroke-width="2" stroke-linecap="round"/>
<path d="M28.7951 217.543C27.6994 213.313 24.0615 205.513 18.276 208.15C12.4905 210.786 15.8654 215.51 18.276 217.543C19.8983 218.642 23.3858 219.817 24.3573 215.73C25.3289 211.643 21.2345 209.962 20.084 211.775C19.4771 212.489 18.7918 214.28 20.9058 215.73" stroke="#EDEDED" stroke-width="2" stroke-linecap="round"/>
<path d="M1.67285 82.9766C2.43252 85.0782 5.34204 89.3912 10.9028 89.8297C17.8537 90.378 18.7653 92.1324 18.4994 99.698C18.2335 107.264 19.0312 110.828 26.324 108.854C33.6168 106.88 44.0622 96.6829 42.3148 107.264C42.0744 108.817 41.1754 112.9 39.5042 116.803" stroke="#EDEDED" stroke-width="2" stroke-linecap="round"/>
<path d="M119.433 154.68C105.658 137.492 110.747 124.155 115.014 119.634C116.964 134.14 128.524 139.9 134.06 140.966V146.147C132.354 144.928 123.598 151.328 119.433 154.68Z" fill="#EDEDED"/>
<path d="M128.987 81.9536C143.157 73.7255 153.125 88.3987 156.109 93.8387C158.003 93.0205 159.874 94.1797 160.573 94.8618V113.692C161.121 115.883 160.957 117.6 160.573 118.81V130.974C160.573 137.679 152.979 141.662 149.17 142.554L148.536 135.176C152.802 130.788 155.189 123.901 155.85 121.006C157.312 121.859 158.897 121.158 159.507 120.701C159.84 120.389 160.274 119.754 160.573 118.81V113.692C159.598 109.791 156.916 111.356 155.697 112.625L148.84 114.606C147.987 108.023 143.579 106.552 141.481 106.638C142.456 102.737 139.297 101.661 137.672 101.305C135.965 104.352 133.304 105.927 132.186 106.638C120.484 112.002 112.226 108.924 107.807 104.048C103.083 99.1718 101.407 86.0677 111.464 81.0394C114.699 79.0945 122.733 76.5548 128.987 81.9536Z" fill="#EDEDED"/>
<path d="M148.643 114.714C148.643 119.255 145.36 122.79 141.481 122.79C137.602 122.79 134.32 119.255 134.32 114.714C134.32 110.173 137.602 106.638 141.481 106.638C145.36 106.638 148.643 110.173 148.643 114.714Z" stroke="#EDEDED" stroke-width="2"/>
<path d="M129.444 117.457C129.444 121.997 126.162 125.532 122.283 125.532C118.404 125.532 115.121 121.997 115.121 117.457C115.121 112.916 118.404 109.381 122.283 109.381C126.162 109.381 129.444 112.916 129.444 117.457Z" stroke="#EDEDED" stroke-width="2"/>
<path d="M129.487 115.745L134.275 115.206" stroke="#EDEDED" stroke-width="2" stroke-linecap="round"/>
<path d="M133.71 135.284C135.761 135.698 138.351 133.717 138.351 131.431" stroke="#EDEDED" stroke-width="2" stroke-linecap="round"/>
<path d="M132.948 119.894C132.186 123.704 129.87 127.178 133.405 128.884" stroke="#EDEDED" stroke-width="2" stroke-linecap="round"/>
<path d="M120.606 125.272C121.868 125.272 122.891 124.249 122.891 122.986C122.891 121.724 121.868 120.701 120.606 120.701C119.344 120.701 118.32 121.724 118.32 122.986C118.32 124.249 119.344 125.272 120.606 125.272Z" fill="#EDEDED"/>
<path d="M139.5 122.529C140.763 122.529 141.786 121.506 141.786 120.244C141.786 118.981 140.763 117.958 139.5 117.958C138.238 117.958 137.215 118.981 137.215 120.244C137.215 121.506 138.238 122.529 139.5 122.529Z" fill="#EDEDED"/>
<path d="M157.938 115.019C158.293 115.628 158.791 117.091 157.938 118.066" stroke="#EDEDED" stroke-width="2" stroke-linecap="round"/>
<path d="M115.426 109.12C113.546 115.012 113.319 128.641 126.606 138.027C139.893 147.413 150.123 134.624 153.576 127.056L155.862 120.809C157.437 121.774 160.616 122.332 160.738 116.847C160.86 111.362 158.656 111.006 157.538 111.514C156.929 111.768 155.649 112.642 155.405 114.104" stroke="#EDEDED" stroke-width="2" stroke-linecap="round"/>
<path d="M148.795 114.409L156.414 112.276" stroke="#EDEDED" stroke-width="2" stroke-linecap="round"/>
<path d="M140.263 114.608C141.518 114.567 144.127 115.12 144.529 117.653" stroke="#EDEDED" stroke-width="2" stroke-linecap="round"/>
<path d="M118.016 116.995C118.877 116.42 121.076 115.53 122.972 116.564" stroke="#EDEDED" stroke-width="2" stroke-linecap="round"/>
<path d="M149.018 141.793C146.326 144.027 139.327 147.979 134.085 145.297" stroke="#EDEDED" stroke-width="2" stroke-linecap="round"/>
<path d="M75.1677 193.447C74.5582 189.942 72.3506 185.402 65.7681 183.695C62.8731 183.035 57.3876 181.41 57.0829 178.819C56.8123 176.519 59.0637 176.13 60.4351 176.537" stroke="#EDEDED" stroke-width="2" stroke-linecap="round"/>
<path d="M65.9206 180.648C59.5166 178.819 51.9452 162.515 57.3836 162.515C59.5637 162.515 61.3923 167.391 62.7637 169.982" stroke="#EDEDED" stroke-width="2" stroke-linecap="round"/>
<path d="M65.1357 163.43C67.7489 163.43 68.3889 163.46 70.9488 170.286" stroke="#EDEDED" stroke-width="2" stroke-linecap="round"/>
<path d="M69.7305 166.629C70.1876 165.614 71.6504 164.588 73.8445 168.61C75.3683 171.404 77.2882 177.692 81.3108 179.276C85.3335 180.861 85.4249 182.324 85.7296 183.238" stroke="#EDEDED" stroke-width="2" stroke-linecap="round"/>
<path d="M86.6965 187.504C77.2497 186.743 71.9776 197.195 83.1923 218.893C97.2106 246.016 131.342 265.062 141.094 196.037" stroke="#EDEDED" stroke-width="2" stroke-linecap="round"/>
<path d="M86.6968 187.504C89.7442 188.165 97.7895 193.295 105.591 208.532C115.343 227.579 100.106 181.867 120.066 152.916" stroke="#EDEDED" stroke-width="2" stroke-linecap="round"/>
<path d="M62.3062 160.687H66.725C68.5763 160.687 70.0772 162.188 70.0772 164.039V165.715" stroke="#EDEDED" stroke-width="2" stroke-linecap="round"/>
<path d="M64.5918 160.687V139.964" stroke="#EDEDED" stroke-width="2" stroke-linecap="round"/>
<path d="M55.7545 150.021H63.9826C64.3191 150.021 64.5921 149.748 64.5921 149.411V141.793C64.5921 141.456 64.3191 141.183 63.9826 141.183H58.3308C57.9944 141.183 57.7213 141.456 57.7213 141.793V143.814C57.7213 144.151 57.9944 144.423 58.3308 144.423H59.402C59.7388 144.423 60.0115 144.697 60.0115 145.033V145.876C60.0115 146.213 59.7388 146.486 59.402 146.486H55.7545C55.4178 146.486 55.145 146.758 55.145 147.095V149.411C55.145 149.748 55.4178 150.021 55.7545 150.021Z" fill="#EDEDED"/>
<path d="M92.4868 233.826V246.93C92.4868 248.613 93.8515 249.977 95.5343 249.977H231.756C233.439 249.977 234.803 248.613 234.803 246.93V43.0549C234.803 41.3718 233.439 40.0074 231.756 40.0074H95.5343C93.8515 40.0074 92.4868 41.3718 92.4868 43.0549V189.638" stroke="#EDEDED" stroke-width="2" stroke-linecap="round"/>
<path d="M161.681 91.2197L231.468 39.6372C233.48 38.1503 236.327 39.5863 236.327 42.088V247.399C236.327 248.376 235.859 249.293 235.068 249.867L165.281 300.415C163.266 301.875 160.445 300.435 160.445 297.947V93.6705C160.445 92.7035 160.904 91.7941 161.681 91.2197Z" fill="#EDEDED"/>
<path d="M59.1069 162.972C59.7164 160.077 63.1601 157.792 66.5732 168.153" stroke="#EDEDED" stroke-width="2" stroke-linecap="round"/>
</g>
<defs>
<clipPath id="clip0_31_39">
<rect width="237" height="301" fill="white"/>
</clipPath>
</defs>
</svg>
