<svg width="24" height="24" viewBox="0 0 24 24" fill="none" xmlns="http://www.w3.org/2000/svg">
<path d="M8.23481 8.58309H6.7305M8.23481 8.58309C8.23481 8.40072 8.16207 8.23439 8.04251 8.10859M8.23481 8.58309C8.23481 8.76547 8.16207 8.9318 8.04251 9.0576M7.48266 9.29362V7.87257M7.48266 9.29362C7.27654 9.29362 7.08979 9.2153 6.95393 9.08845M7.48266 9.29362C7.705 9.29362 7.90481 9.20248 8.04251 9.0576M6.7305 8.58309C6.7305 8.7808 6.81598 8.95965 6.95393 9.08845M6.7305 8.58309C6.7305 8.38539 6.81598 8.20654 6.95393 8.07774M7.48266 7.87257C7.705 7.87257 7.90481 7.9637 8.04251 8.10859M7.48266 7.87257C7.27654 7.87257 7.08979 7.95089 6.95393 8.07774M5.79921 7.73668L5.19033 8.3457M5.79921 7.73668C5.79921 7.90622 5.72995 8.05958 5.61818 8.17M5.79921 7.73668C5.79921 7.61915 5.76593 7.50939 5.70827 7.41632M5.19033 8.3457C5.3571 8.3457 5.50822 8.27864 5.61818 8.17M5.19033 8.3457C5.11032 8.3457 5.03392 8.33027 4.96394 8.30222M4.58144 7.73668L5.19033 7.12766M4.58144 7.73668C4.58144 7.57299 4.64601 7.42438 4.75106 7.31494M4.58144 7.73668C4.58144 7.83532 4.60488 7.92848 4.6465 8.01089M5.19033 7.12766C5.01771 7.12766 4.86186 7.19951 4.75106 7.31494M5.19033 7.12766C5.24011 7.12766 5.28849 7.13364 5.33481 7.14491M22.0301 7.24826C21.5222 6.91005 21.2742 5.89529 21.8789 5.58528C22.3929 5.3598 22.9763 5.61331 22.9975 6.2053C23.048 7.617 22.321 8.27861 21.6432 8.5126M2.46849 14.7068C3.27952 14.7068 3.93698 13.6009 3.93698 12.2368C3.93698 10.8727 3.27952 9.76693 2.46849 9.76693M2.46849 14.7068C1.65747 14.7068 1 13.6009 1 12.2368C1 10.8727 1.65747 9.76693 2.46849 9.76693M2.46849 14.7068C2.71339 14.8346 3.19555 15 3.97924 15C4.76292 15 5.08946 15.0301 5.15477 15.0451M2.46849 9.76693H4.86826M5.44676 10.782C5.72926 11.3805 6.10935 12.9086 5.36972 14.2331M3.86539 15.0451C4.18419 15.6462 5.17493 17.0427 6.58747 17.8195M6.01798 17.4812C5.99376 18.3201 6.08095 20.1088 6.62342 20.5522C7.1659 20.9955 8.54469 20.7369 9.16628 20.5522M8.89492 17.9549C8.8384 18.8478 8.90945 20.6846 9.64575 20.8878C10.382 21.091 11.6318 20.9725 12.1647 20.8878C12.2454 20.8878 12.4408 20.7862 12.5764 20.3797C12.712 19.9733 12.8428 18.64 12.8913 18.0242M7.51872 18.2255C7.76201 18.3721 8.3021 18.6407 8.80813 18.543M12.8197 19.129C13.688 19.2048 15.6097 19.2453 16.5446 18.6992M14.897 19.1053C14.954 19.4476 15.1414 20.109 15.4346 20.2024C15.8012 20.3191 16.7299 20.4125 16.9743 20.1791M16.5446 18.2436C16.5857 18.9797 16.811 20.4704 17.3834 20.5448C18.0988 20.6378 19.209 20.661 19.9491 20.0334C20.5413 19.5314 20.4426 17.7167 20.3192 16.8722M20.3714 17.4135C21.5744 16.052 23.478 12.318 21.4687 8.27484C19.4593 4.23165 14.3401 3.74395 12.0316 4.00549M10.8139 4.15038C9.1274 4.47132 5.50888 5.97059 3.93703 9.76691M7.07173 5.8421C6.81444 4.99802 6.45423 3.2536 7.07173 3.02851C7.68923 2.80342 8.77317 3.96637 9.23796 4.57599M9.52445 5.99365C10.0787 5.0196 11.3125 3.23383 11.8138 3.8832C12.315 4.53257 12.2797 6.8131 12.1993 7.87219M4.75106 7.31494L5.61818 8.17M5.70827 7.41632L4.96394 8.30222M5.70827 7.41632C5.62534 7.28249 5.49202 7.18318 5.33481 7.14491M4.96394 8.30222C4.82602 8.24693 4.71304 8.14265 4.6465 8.01089M4.6465 8.01089L5.33481 7.14491M8.04251 8.10859L6.95393 9.08845M6.95393 8.07774L8.04251 9.0576" stroke="black" stroke-linecap="round"/>
</svg>
