<svg width="725" height="1007" viewBox="0 0 725 1007" fill="none" xmlns="http://www.w3.org/2000/svg">
<path d="M223.003 897.391C224.602 903.801 226.617 910.131 227.725 916.642C228.558 921.634 229.891 926.843 228.916 932.633C225.783 931.455 225.839 929.003 224.814 927.38C223.404 925.109 221.746 922.949 220.163 920.767C219.909 919.882 219.629 919.044 219.375 918.158C219.495 917.604 219.642 917.003 219.811 916.475C219.641 915.885 219.519 915.321 219.35 914.731C219.255 914.119 219.159 913.508 219.037 912.944C218.72 912.395 218.404 911.847 218.066 911.226L218.033 910.835L218.287 911.162C218.604 911.71 218.921 912.258 219.238 912.806C219.333 913.418 219.455 913.982 219.598 914.62C219.72 915.184 219.889 915.774 220.011 916.338C219.79 916.961 219.569 917.583 219.375 918.158C219.629 919.044 219.861 919.855 220.115 920.741C221.495 924.857 222.875 928.974 224.34 933.386C217.882 934.958 218.299 929.727 215.713 926.555C215.726 929.107 215.743 930.979 215.736 934.016C213.407 929.932 211.526 926.718 209.646 923.503C207.62 916.856 205.473 910.204 201.044 904.646L201.082 904.915C200.87 904.177 200.679 903.512 200.468 902.774L200.553 903.07C196.677 891.922 192.828 880.726 188.852 869.647C186.96 864.439 184.745 859.364 182.679 854.246L182.764 854.541L182.197 852.427L182.33 852.749C180.527 847.715 178.798 842.66 176.995 837.626L177.127 837.948C176.937 837.284 176.725 836.546 176.535 835.882L176.619 836.177C176.455 835.465 176.217 834.775 176.053 834.063L176.185 834.385C176.084 833.335 176.13 832.244 175.855 831.285C170.692 813.278 165.455 795.293 160.292 777.286C160.122 776.696 159.658 776.19 159.388 775.668L159.447 776.011L158.807 773.918L158.892 774.213L158.252 772.121L158.31 772.464C158.212 769.616 158.067 766.743 157.969 763.896C157.257 763.501 156.593 763.132 155.88 762.738L156.212 762.363L155.912 762.569C156.671 762.99 157.405 763.459 158.138 763.927C157.301 764.766 156.416 765.579 155.578 766.418L155.726 766.376C155.239 765.238 154.458 764.184 154.241 763.008C151.891 748.547 151.535 734.074 154.115 719.677C156.711 704.917 163.158 692.166 174.564 682.227C176.987 680.095 179.273 677.762 181.792 675.682C189.099 669.554 197.405 665.654 206.762 663.89C227.069 660.063 246.555 663.541 265.307 671.142C280.166 677.144 294.461 684.385 309.131 690.841C319.005 695.197 328.954 699.532 339.097 703.293C345.627 705.733 349.215 703.626 351.466 696.991C353.301 691.553 354.803 685.931 356.327 680.382C357.11 677.403 357.603 674.386 358.217 671.375C358.338 670.821 358.458 670.267 358.505 669.735C358.384 670.289 358.264 670.842 358.143 671.396C358.404 668.686 358.691 665.928 358.952 663.217L358.757 663.233C359.459 663.312 360.139 663.316 360.793 663.369C360.561 663.675 360.356 663.933 360.124 664.239C360.329 663.981 360.582 663.748 360.788 663.49C360.56 662.557 360.353 661.697 360.126 660.764L360.163 661.033C360.636 659.62 361.136 658.159 361.562 656.719L361.098 656.772L361.63 656.819C360.682 657.969 359.734 659.12 358.834 660.296L359.081 660.185C359.065 653.721 358.974 647.278 359.031 640.793C359.124 633.458 359.434 626.182 359.622 618.9L359.427 618.916C360.05 619.696 360.673 620.475 361.296 621.255C359.943 623.36 360.144 624.9 362.766 625.546C361.221 626.428 360.938 627.388 362.494 628.499C361.736 629.754 361.004 630.962 360.246 632.218C361.472 634.263 359.444 637.36 362.42 638.823C362.378 639.793 362.29 640.737 362.275 641.66C362.328 642.682 362.335 643.679 362.388 644.702C362.125 645.177 361.767 645.599 361.504 646.073C361.815 645.625 362.125 645.177 362.41 644.776L362.343 641.76C362.432 640.816 362.447 639.893 362.536 638.949C362.419 637.705 362.549 636.35 362.137 635.19C361.793 634.131 360.833 633.288 360.241 632.339C361.047 631.11 361.805 629.854 362.563 628.599C362.678 627.607 362.719 626.637 362.834 625.646C362.263 624.212 361.74 622.805 361.169 621.371C360.981 617.232 360.745 613.067 360.556 608.928L360.615 609.271C360.492 607.589 360.343 605.955 360.172 604.247L360.23 604.589C361.384 597.47 360.365 590.574 358.176 583.775L358.26 584.07C357.584 577.675 357.151 571.29 356.18 564.979C355.554 560.846 354.148 556.777 353.131 552.676L353.216 552.971C352.823 549.65 352.751 546.196 351.941 542.954C350.416 536.523 348.523 530.198 346.777 523.83L346.861 524.125C346.596 521.805 346.646 519.475 346.085 517.24C339.439 492.391 332.671 467.536 325.904 442.682C324.999 439.388 323.773 436.225 322.673 432.947L322.731 433.289C322.493 432.599 322.329 431.887 322.092 431.197L322.176 431.492C321.938 430.801 321.774 430.09 321.536 429.399L321.594 429.742C320.816 425.772 320.037 421.803 319.258 417.833C319.062 417.29 318.893 416.7 318.697 416.157C318.38 415.609 318.064 415.061 317.794 414.539C317.456 413.917 317.071 413.269 316.733 412.647C317.264 411.017 317.795 409.388 318.347 407.832C317.735 407.368 317.075 406.879 316.463 406.415C316.589 405.74 316.667 405.039 316.719 404.385C316.255 403.879 315.838 403.4 315.421 402.92L315.632 402.541L315.379 402.773C315.938 403.331 316.45 403.863 316.983 404.469C316.857 405.144 316.758 405.772 316.632 406.447C317.217 406.957 317.803 407.468 318.389 407.979C317.932 409.588 317.427 411.17 316.996 412.731C317.408 413.332 317.746 413.954 318.037 414.549C318.354 415.097 318.67 415.645 319.014 416.146C319.183 416.736 319.379 417.279 319.548 417.87C318.979 418.672 318.437 419.426 317.868 420.228L318.016 420.186C316.285 412.895 314.163 405.637 312.822 398.314C309.542 380.607 307.532 362.734 307.594 344.707C307.595 340.673 307.728 336.402 309.237 332.336C310.089 330.015 309 327.053 309.283 324.416C310.49 313.168 314.92 303.272 322.473 294.797C325.791 291.051 328.761 286.925 332.565 283.757C345.441 272.957 360.446 271.53 376.078 275.353C388.487 278.384 399.176 285.302 409.333 292.732C419.654 300.315 429.59 308.367 439.858 316.045C451.112 324.518 462.415 333.017 475.807 338.082C479.441 339.476 483.207 340.632 486.988 341.425C497.583 343.698 502.97 341.594 508.112 332.093C513.628 321.806 518.099 310.94 520.725 299.486C525.85 277.251 528.607 254.697 529.476 231.966C529.58 229.54 530.774 227.161 531.604 224.208C529.881 219.591 529.085 214.308 530.683 208.739C531.082 207.346 531.381 205.464 530.773 204.32C527.752 198.797 528.68 192.98 529.144 187.217L528.922 187.28C529.186 186.806 529.449 186.331 529.712 185.856L529.723 186.172C529.743 185.128 529.763 184.084 529.857 183.019L529.92 183.241C529.73 182.577 529.539 181.912 529.349 181.248L529.412 181.469C529.579 179.265 531.459 176.211 526.887 176.284L526.998 176.531C527.612 172.961 524.545 169.089 527.779 165.606C527.958 165.394 526.538 163.925 526.479 163.023C526.463 162.269 527.416 161.556 527.911 160.776C527.816 160.723 527.716 160.792 527.595 160.787C527.69 160.839 527.806 160.966 527.875 161.066C527.387 158.81 526.874 156.601 526.387 154.345L526.402 154.54C526.212 153.875 526.022 153.211 525.784 152.521L525.868 152.816C525.678 152.152 525.44 151.461 525.276 150.75L525.36 151.045C525.211 149.41 525.088 147.729 524.892 146.068L524.976 146.363C524.786 145.699 524.595 145.035 524.384 144.297L524.495 144.544C523.943 141.508 523.392 138.471 522.915 135.414L523.015 135.345C522.858 131.596 523.192 127.747 520.358 124.686L520.632 124.528C520.441 123.863 520.203 123.173 520.039 122.461L519.697 122.52C520.214 117.22 519.286 112.175 516.493 107.585L516.693 107.448C516.502 106.784 516.291 106.046 516.1 105.382L515.905 105.398C515.392 103.748 514.853 102.145 514.34 100.496L514.661 100.363C514.471 99.6992 514.259 98.9613 514.069 98.2971L514.153 98.5923C513.963 97.9281 513.751 97.1902 513.561 96.526L513.646 96.8212C513.455 96.157 513.244 95.419 513.053 94.7549L513.138 95.05C512.947 94.3858 512.736 93.6478 512.545 92.9837L512.203 93.042C511.933 91.9614 511.636 90.9282 511.319 89.8213L511.614 89.7366C511.424 89.0724 511.212 88.3344 511.022 87.6703L511.106 87.9655C510.916 87.3013 510.704 86.5633 510.514 85.8992L510.245 85.9363C509.99 84.4918 509.688 83.0211 509.434 81.5766L509.513 81.4341C507.62 76.2265 505.707 70.9451 503.814 65.7375L503.825 66.0539C503.634 65.3897 503.396 64.6992 503.232 63.9875L502.89 64.0459C503.45 60.0118 501.718 56.7549 499.542 53.625L499.49 53.72C498.889 48.4215 495.906 44.2853 493.518 39.2996C492.185 40.3607 491.405 40.9836 490.651 41.559C490.227 38.4064 489.776 35.3012 489.319 31.7584C491.693 33.0743 493.782 34.2323 495.871 35.3903L495.544 35.6437L495.887 35.5854C492.831 32.5881 495.243 29.5804 495.83 26.0577C498.916 27.2095 499.567 30.1774 501.209 32.1425C502.106 32.7639 503.003 33.3852 503.852 33.9802L503.547 34.3073L503.942 34.1541C502.924 33.5276 501.98 32.88 500.961 32.2535C500.891 30.4767 501.016 28.6838 500.677 26.9441C500.2 24.4453 499.333 21.9786 498.634 19.5433C501.811 16.8354 503.473 17.7565 504.673 20.9664C512.036 40.3787 520.359 59.5158 526.589 79.293C532.972 99.4654 537.875 120.182 542.439 140.836C545.495 154.695 546.758 168.988 548.928 183.101C549.215 184.936 549.991 186.67 550.547 188.467C549.078 190.446 548.789 192.086 551.774 192.748C551.311 193.919 550.848 195.09 550.412 196.213C550.366 197.863 550.273 199.487 550.227 201.138C550.56 201.881 550.892 202.624 551.225 203.367C551.425 203.23 551.626 203.093 551.826 202.955C551.293 202.35 550.733 201.791 550.227 201.138C551.438 199.513 552.818 197.919 550.312 196.282C550.822 195.137 551.285 193.966 551.748 192.795C551.298 191.367 550.849 189.938 550.399 188.51C550.007 180.596 549.662 172.708 549.196 164.815C548.879 159.116 548.367 153.432 547.882 147.702C547.818 146.921 547.659 146.088 547.448 145.35C546.146 141.091 544.334 136.859 543.523 132.499C538.796 107.1 531.338 82.4837 522.477 58.2694C518.322 46.8422 513.772 35.5683 509.59 24.1886C508.739 21.9169 508.726 19.3649 508.297 16.8925C512.746 15.6966 514.704 17.6509 515.229 20.7349C517.841 34.7208 524.376 47.3427 529.06 60.6148C537.62 85.035 544.73 109.831 549.8 135.172C556.423 168.573 560.067 202.31 558.275 236.447C557.038 260.96 554.472 285.296 547.008 308.841C544.789 315.866 542.281 322.855 538.965 329.396C528.455 350.259 510.159 360.538 488.123 365.019C464.569 369.777 444.245 360.869 424.82 349.109C420.415 346.418 416.72 342.446 412.125 340.21C400.035 334.253 389.729 325.747 378.597 318.397C375.146 316.112 371.538 314.112 367.982 312.017C366.653 311.28 364.949 310.77 364.146 309.642C360.482 304.384 354.687 304.089 349.345 302.865C344.482 301.784 343.729 302.359 342.173 306.958C339.423 315.055 338.846 323.486 338.727 331.986C338.449 350.514 342.126 368.628 344.78 386.795C345.077 388.946 345.327 391.071 345.624 393.221L345.302 392.795L345.503 393.216C348.769 406.695 351.84 420.191 355.327 433.606C360.921 455.203 366.905 476.768 372.473 498.412C380.274 528.68 387.168 559.129 390.851 590.218C394.476 620.965 394.506 651.705 388.835 682.202C386.884 692.665 384.183 703.023 376.619 711.182C374.455 713.52 371.884 715.695 369.191 717.305C348.902 729.273 327.58 730.115 305.913 721.953C284.819 713.985 264.11 704.988 243.096 696.878C231.118 692.286 218.766 689.04 205.826 688.198C199.551 687.761 195.72 689.858 192.952 695.523C187.4 706.659 185.291 718.525 184.723 730.747C183.99 747.41 186.795 763.736 191.714 779.497C200.271 806.833 209.197 834.063 218.988 860.966C226.019 880.194 231.136 899.851 236.617 919.523C237.781 923.582 237.408 924.368 234.56 929.617C233.513 926.802 232.678 924.726 232.065 922.585C230.023 915.743 228.129 908.859 225.913 902.107C225.374 900.505 223.801 899.198 222.719 897.792C222.55 897.201 222.38 896.611 222.211 896.02C224.063 891.896 223.72 890.836 219.572 887.233C219.744 885.467 219.938 883.774 220.084 882.055C219.983 882.124 219.862 882.119 219.715 882.161C219.857 882.24 220.052 882.224 220.221 882.256C217.707 883.655 217.877 885.363 219.767 887.217C218.99 890.635 219.984 893.544 222.406 896.004C222.576 896.595 222.745 897.185 222.962 897.802L223.003 897.391ZM506.007 59.3186C505.86 59.9198 505.686 60.5685 505.539 61.1697C505.951 61.7704 506.315 62.3448 506.727 62.9455L506.807 63.3619L506.553 63.0353C506.168 62.3872 505.803 61.8128 505.492 61.1435C505.591 60.5159 505.738 59.9146 505.812 59.3346C505.721 58.6018 505.631 57.869 505.493 57.1098C504.383 54.6327 503.321 52.1819 502.212 49.7048C501.203 47.718 500.12 45.7523 499.111 43.7655C500.137 41.3549 498.733 40.0803 496.407 39.3496C497.389 40.825 498.398 42.2529 499.406 43.6809C500.415 45.6677 501.472 47.6808 502.481 49.6677C502.23 52.6944 503.018 55.3037 505.714 57.0463C505.852 57.8055 505.943 58.5383 506.08 59.2974L506.007 59.3186ZM511.708 77.8097C511.777 78.4687 511.847 79.1277 511.916 79.7868L512.327 79.8286C512.327 79.8286 511.984 79.8869 512.011 79.8394C511.868 79.2016 511.725 78.5637 511.608 77.8783C511.497 77.0717 511.406 76.339 511.295 75.5324C510.951 74.4729 510.681 73.3922 510.337 72.3327C510.268 71.6737 510.178 70.9409 510.109 70.2819C509.823 69.5651 509.49 68.8219 509.205 68.1051C508.978 68.2899 508.778 68.4272 508.504 68.5856C509.09 69.0965 509.723 69.6337 510.283 70.192C510.399 70.8774 510.442 71.5839 510.559 72.2692C510.876 73.3762 511.172 74.4094 511.49 75.5163C511.554 76.2966 511.644 77.0294 511.708 77.8097ZM327.441 433.975L328.661 436.141C328.635 436.748 328.583 437.402 328.557 438.008L330.162 439.704C329.767 440.417 329.372 441.129 328.977 441.841C329.737 442.262 330.496 442.683 331.256 443.104C331.531 444.064 331.785 444.949 332.034 445.956C332.314 446.794 332.521 447.653 332.801 448.491C332.397 450.564 332.04 452.663 331.636 454.735C331.869 455.547 332.102 456.359 332.335 457.171C332.852 457.581 333.39 458.066 333.907 458.477C333.634 459.194 333.339 459.838 333.065 460.555C333.531 461.62 334.069 462.663 334.608 463.707C334.677 464.366 334.768 465.098 334.837 465.757C335.301 466.263 335.766 466.769 336.23 467.275C336.278 467.86 336.3 468.493 336.348 469.078C336.591 469.647 336.834 470.216 337.098 470.859C337.194 471.471 337.289 472.082 337.311 472.715C337.554 473.284 337.797 473.853 338.04 474.423C338.236 474.966 338.453 475.582 338.648 476.125C338.891 476.694 339.087 477.237 339.304 477.854C339.473 478.444 339.642 479.035 339.812 479.625C339.981 480.216 340.15 480.806 340.319 481.396C340.489 481.987 340.658 482.577 340.827 483.167C340.997 483.758 341.166 484.348 341.335 484.939C341.578 485.508 341.821 486.077 342.064 486.646C342.16 487.258 342.255 487.869 342.425 488.46C342.742 489.008 343.106 489.582 343.423 490.13C343.492 490.789 343.54 491.374 343.609 492.033C343.852 492.603 344.095 493.172 344.338 493.741C344.508 494.331 344.677 494.922 344.846 495.512C345.089 496.081 345.406 496.63 345.649 497.199C343.447 499.268 345.174 501.528 345.497 503.631C346.118 507.327 347.081 510.964 347.923 514.596C348.213 515.192 348.456 515.761 348.721 516.404C349.038 516.952 349.428 517.479 349.745 518.027C349.914 518.617 350.01 519.229 350.179 519.819C350.57 520.346 350.934 520.921 351.325 521.448C351.42 522.059 351.516 522.671 351.611 523.282C352.028 523.762 352.419 524.288 352.883 524.794C352.489 526.065 351.657 527.342 351.753 528.513C351.998 530.759 352.807 532.883 353.442 535.097C353.732 535.692 353.975 536.261 354.266 536.857C354.509 537.426 354.752 537.995 354.995 538.564C355.238 539.134 355.481 539.703 355.724 540.272C355.822 543.119 355.92 545.966 356.044 548.766C356.434 549.293 356.825 549.82 357.216 550.347C357.385 550.937 357.554 551.528 357.723 552.118C358.188 552.624 358.7 553.156 359.164 553.661C358.702 555.391 358.219 557.047 357.83 558.756C358.194 559.331 358.532 559.952 358.849 560.5C359.266 560.98 359.657 561.507 360.074 561.986C360.076 564.222 360.031 566.431 360.059 568.619C360.424 569.194 360.788 569.768 361.226 570.321C360.864 571.982 360.502 573.644 360.213 575.284C360.725 575.816 361.237 576.348 361.749 576.88C362.24 577.338 362.778 577.823 363.243 578.328C362.611 579.468 361.932 580.581 361.374 581.699C361.838 582.205 362.303 582.711 362.767 583.217C363.279 583.749 363.791 584.281 364.303 584.813C363.698 585.905 363.045 586.971 362.514 588.041L364.139 589.811C364.051 591.314 363.889 592.838 363.801 594.341C364.334 594.947 364.915 595.579 365.448 596.185C364.726 597.151 364.079 598.095 363.405 599.087C363.938 599.693 364.518 600.325 365.03 600.857C365.004 600.904 364.952 600.999 364.878 601.02C364.973 601.073 365.02 601.099 365.115 601.152C364.513 600.446 363.911 599.74 363.31 599.034C363.957 598.09 364.605 597.145 365.179 596.222C364.619 595.664 364.039 595.032 363.479 594.473C363.594 592.923 363.73 591.446 363.844 589.896C363.311 589.29 362.731 588.658 362.171 588.1C362.824 587.034 363.524 585.995 364.103 584.95C363.591 584.418 363.079 583.886 362.567 583.354C362.103 582.848 361.564 582.364 361.1 581.858C361.732 580.718 362.337 579.626 362.942 578.534C362.478 578.029 361.987 577.57 361.522 577.065C361.01 576.533 360.525 575.953 360.013 575.421C361.989 574.096 361.987 572.419 360.952 570.48C360.588 569.905 360.15 569.352 359.785 568.778C359.831 566.568 359.802 564.38 359.8 562.145C359.409 561.618 358.992 561.138 358.649 560.638C358.285 560.063 357.873 559.463 357.508 558.888C357.944 557.206 358.454 555.502 358.817 553.841C358.352 553.335 357.914 552.782 357.497 552.303C357.328 551.712 357.158 551.122 357.036 550.558C356.598 550.005 356.181 549.525 355.743 548.972C358.567 546.006 355.79 543.288 355.424 540.478C355.181 539.909 354.938 539.34 354.695 538.77C354.452 538.201 354.209 537.632 353.966 537.063C353.675 536.467 353.358 535.919 353.067 535.324C355.405 531.778 352.022 528.475 352.583 525C352.166 524.521 351.728 523.968 351.311 523.488C351.215 522.877 351.12 522.265 351.025 521.653C350.634 521.127 350.317 520.579 349.953 520.004C349.831 519.44 349.688 518.802 349.566 518.238C349.249 517.69 348.858 517.163 348.589 516.642C348.298 516.046 348.008 515.45 347.717 514.855C348.001 513.336 348.748 511.764 348.467 510.367C347.656 506.007 346.476 501.753 345.37 497.478C345.127 496.909 344.884 496.34 344.567 495.792C344.398 495.201 344.229 494.611 344.012 493.994C343.769 493.425 343.573 492.882 343.33 492.313C343.261 491.654 343.213 491.069 343.117 490.457C342.801 489.909 342.51 489.314 342.193 488.766C342.098 488.154 342.002 487.543 341.88 486.979C341.637 486.409 341.394 485.84 341.151 485.271C340.982 484.681 340.812 484.09 340.643 483.5C340.474 482.909 340.305 482.319 340.135 481.729C339.966 481.138 339.797 480.548 339.627 479.957C339.458 479.367 339.289 478.777 339.12 478.186C338.877 477.617 338.681 477.074 338.512 476.484C338.316 475.941 338.099 475.324 337.904 474.781C337.661 474.212 337.417 473.643 337.174 473.074C337.079 472.462 336.983 471.851 336.888 471.239C336.645 470.67 336.354 470.074 336.137 469.458C336.089 468.872 336.041 468.287 336.02 467.655C335.555 467.149 335.138 466.669 334.747 466.142C334.583 465.431 334.393 464.767 334.229 464.055C336.183 462.097 335.249 461.207 333.003 460.892C333.202 460.196 333.449 459.526 333.649 458.83C333.206 458.398 332.763 457.966 332.319 457.534C332.086 456.723 331.832 455.837 331.6 455.025C332.004 452.953 332.36 450.854 332.764 448.781C332.531 447.97 332.251 447.131 332.045 446.272C331.77 445.313 331.495 444.354 331.22 443.394C330.507 442.999 329.748 442.578 329.035 442.183C329.43 441.471 329.804 440.685 330.151 439.947C329.565 439.436 328.953 438.973 328.441 438.44C328.446 437.76 328.498 437.106 328.429 436.447C328.117 435.778 327.853 435.135 327.589 434.492C327.52 434.392 327.499 434.318 327.43 434.218C327.525 434.271 327.62 434.323 327.742 434.329C327.647 434.276 327.573 434.297 327.451 434.292L327.441 433.975ZM211.154 918.319C211.154 918.319 211.365 917.939 211.444 917.796C211.434 918.039 211.35 918.303 211.292 918.519C211.392 918.45 211.466 918.429 211.566 918.36C211.397 918.329 211.276 918.324 211.107 918.292L211.154 918.319ZM518.923 96.1465L518.622 96.3524L518.807 96.02C518.648 95.1871 518.563 94.3331 518.404 93.5001C517.913 93.0419 517.348 92.6047 516.857 92.1465C516.778 92.2889 516.699 92.4313 516.621 92.5738C517.19 92.8896 517.76 93.2054 518.282 93.4949C518.536 94.3805 518.764 95.3136 518.97 96.1728L518.923 96.1465ZM214.787 901.464C214.275 900.932 213.837 900.378 213.325 899.846L213.43 899.656C213.43 899.656 213.468 899.925 213.515 899.952C214.006 900.41 214.423 900.889 214.887 901.395C214.999 902.202 215.089 902.934 215.201 903.741C215.496 904.215 215.766 904.737 216.062 905.211C215.718 904.711 215.349 904.258 215.005 903.757C214.915 903.024 214.851 902.244 214.761 901.511L214.787 901.464ZM207.86 908.362L207.654 908.061C207.654 908.061 207.892 908.193 207.865 908.24L207.924 908.583L207.86 908.362ZM163.573 773.27C163.573 773.27 163.315 773.624 163.188 773.74C163.32 773.503 163.404 773.239 163.509 773.049C163.435 773.07 163.314 773.065 163.24 773.086C163.335 773.139 163.478 773.218 163.599 773.223L163.573 773.27ZM524.895 121.988C524.895 121.988 524.932 122.256 524.975 122.404C524.906 122.304 524.816 122.13 524.7 122.004C524.415 121.287 524.177 120.596 523.891 119.879C524.642 116.509 525.245 113.182 521.141 111.403C522.552 109.082 521.175 108.319 519.177 107.894C519.591 105.579 520.005 103.264 520.346 100.97C519.945 100.685 519.544 100.401 519.169 100.069C519.09 100.212 519.101 100.528 519.101 100.528C519.581 100.67 520.087 100.764 520.594 100.859C520.153 103.221 519.691 105.51 519.25 107.873C519.932 108.995 520.634 110.191 521.315 111.314C522.241 114.123 523.14 116.98 524.113 119.816C524.398 120.533 524.636 121.223 524.921 121.94L524.895 121.988ZM343.145 458.943C343.452 459.733 343.806 460.55 344.113 461.341C344.403 461.936 344.667 462.579 344.958 463.175C344.758 463.871 344.559 464.567 344.311 465.237C344.997 465.679 345.636 466.095 346.295 466.585C345.9 467.297 345.527 468.083 345.179 468.822C345.939 469.243 346.746 469.69 347.506 470.111C347.085 470.871 346.616 471.604 346.148 472.337C346.955 472.785 347.788 473.185 348.622 473.585C348.174 474.392 347.658 475.099 347.164 475.88C347.971 476.327 348.778 476.775 349.611 477.175C349.19 477.934 348.722 478.668 348.227 479.448C349.034 479.896 349.867 480.296 350.653 480.669C350.206 481.476 349.69 482.184 349.195 482.964C350.028 483.364 350.888 483.717 351.722 484.117L350.337 486.39C351.144 486.838 351.904 487.259 352.711 487.706C352.29 488.466 351.795 489.247 351.327 489.98C351.534 491.957 351.741 493.934 351.996 495.938C352.182 496.723 352.415 497.535 352.573 498.368C353.186 498.831 353.75 499.268 354.362 499.732C354.041 500.423 353.768 501.14 353.473 501.784C354.18 502.3 354.866 502.742 355.573 503.258C355.226 503.997 354.952 504.714 354.605 505.452C355.291 505.895 355.903 506.358 356.589 506.8L355.405 508.937C356.259 509.411 357.066 509.858 357.873 510.305C357.452 511.065 357.005 511.872 356.536 512.606C357.417 513.032 358.277 513.384 359.158 513.811C358.763 514.523 358.347 515.161 357.905 515.847C358.712 516.294 359.467 516.837 360.2 517.305C359.779 518.065 359.237 518.82 358.768 519.553L359.106 519.616L358.816 519.579C359.263 518.772 359.684 518.012 360.179 517.232C359.372 516.784 358.565 516.337 357.805 515.916C358.226 515.156 358.621 514.444 359.016 513.732C358.156 513.379 357.275 512.953 356.415 512.6C356.863 511.793 357.284 511.034 357.636 510.174C356.876 509.753 356.117 509.332 355.378 508.984C355.678 508.22 356.052 507.434 356.304 506.642C355.713 506.253 355.122 505.863 354.558 505.426C354.81 504.635 355.11 503.87 355.362 503.079C354.724 502.663 354.085 502.247 353.447 501.831C353.673 501.088 353.946 500.37 354.172 499.627C353.703 499.242 353.212 498.784 352.769 498.352C352.536 497.54 352.303 496.728 352.07 495.917C353.328 493.759 353.068 491.877 351.321 490.102C351.769 489.294 352.19 488.535 352.637 487.728C351.878 487.306 351.065 486.98 350.258 486.533C350.706 485.726 351.127 484.966 351.574 484.159C350.762 483.833 349.928 483.433 349.142 483.059C349.59 482.252 350.037 481.445 350.532 480.664C349.746 480.291 348.912 479.891 348.127 479.517C348.574 478.71 348.995 477.95 349.442 477.143C348.683 476.722 347.823 476.37 347.063 475.948C347.511 475.141 348.006 474.36 348.5 473.58C347.667 473.18 346.881 472.806 346.048 472.406C346.495 471.599 346.916 470.839 347.363 470.032C346.604 469.611 345.865 469.264 345.079 468.89C345.405 468.078 345.779 467.292 346.031 466.501C345.414 466.159 344.823 465.769 344.232 465.379C344.385 464.657 344.489 463.908 344.594 463.159C344.325 462.638 344.034 462.042 343.717 461.494C343.506 460.756 343.246 459.992 343.035 459.254C343.035 459.254 343.109 459.233 343.183 459.211C343.088 459.159 342.993 459.106 342.924 459.006L343.145 458.943ZM164.674 783.377C165.081 784.099 165.508 784.895 165.915 785.617L165.59 787.547L167.01 789.017C167.031 789.649 167.006 790.256 167.027 790.888C167.344 791.437 167.709 792.011 168.052 792.511C168.221 793.102 168.464 793.671 168.633 794.261C168.803 794.852 169.046 795.421 169.215 796.011C169.384 796.602 169.554 797.192 169.749 797.735C169.919 798.325 170.088 798.916 170.257 799.506C170.426 800.097 170.67 800.666 170.839 801.256C170.934 801.868 171.104 802.458 171.199 803.07C171.395 803.613 171.611 804.229 171.807 804.772C171.976 805.363 172.072 805.974 172.241 806.564L172.749 808.336C172.918 808.926 173.088 809.516 173.257 810.107C173.426 810.697 173.522 811.309 173.691 811.899C173.813 812.463 173.956 813.101 174.078 813.665C174.247 814.255 174.416 814.846 174.585 815.436C174.755 816.027 174.924 816.617 175.093 817.207C175.189 817.819 175.284 818.43 175.38 819.042C175.549 819.632 175.644 820.244 175.814 820.834C175.835 821.467 175.857 822.1 175.879 822.732C176.022 823.37 176.165 824.008 176.26 824.619C176.403 825.257 176.499 825.869 176.615 826.554C177.418 828.241 178.048 830.017 179.051 831.566C179.896 832.841 181.141 833.842 182.234 835.006C182.298 835.787 182.388 836.519 182.452 837.3C182.279 837.948 182.105 838.597 181.858 839.267C182.127 839.789 182.444 840.337 182.714 840.858C182.561 841.581 182.409 842.304 182.257 843.026C182.722 843.532 183.212 843.99 183.724 844.522C183.525 845.218 183.399 845.893 183.199 846.589C184.782 848.212 186.292 849.855 187.849 851.525C187.987 852.285 188.098 853.091 188.284 853.877C188.036 854.547 187.789 855.216 187.542 855.886C187.833 856.482 188.102 857.004 188.392 857.599C188.24 858.322 188.041 859.018 187.862 859.788C188.4 860.272 188.939 860.757 189.429 861.215C190.043 863.355 189.656 866.182 192.999 866.421C193.063 867.201 193.053 868.003 193.117 868.783L193.061 870.676C193.035 871.283 192.983 871.936 192.957 872.543C193.321 873.117 193.686 873.692 194.003 874.24C193.851 874.962 193.725 875.637 193.62 876.386C194.808 878.162 195.996 879.937 197.21 881.666C197.48 882.187 197.797 882.736 198.066 883.257C198.014 883.911 198.009 884.591 197.983 885.198C198.227 885.767 198.47 886.336 198.665 886.879C198.75 887.733 198.762 888.608 198.8 889.436C198.9 889.368 199.026 889.251 199.174 889.209C198.978 889.225 198.831 889.267 198.636 889.283C198.572 888.503 198.534 887.675 198.47 886.895C198.227 886.326 197.958 885.804 197.715 885.235C197.767 884.581 197.792 883.975 197.845 883.321C197.575 882.799 197.258 882.251 196.989 881.729C197.171 879.161 196.731 876.931 193.667 876.412C193.746 875.711 193.75 875.031 193.829 874.329C193.512 873.781 193.147 873.207 192.857 872.611C192.835 871.979 192.861 871.372 192.839 870.74C192.818 870.107 192.822 869.427 192.801 868.794C192.858 868.019 192.915 867.244 192.972 866.469C191.71 864.714 190.47 863.033 189.208 861.279C188.744 860.773 188.279 860.267 187.862 859.788C187.941 859.086 188.066 858.411 188.145 857.71C187.854 857.114 187.585 856.593 187.294 855.997C187.542 855.327 187.815 854.61 187.941 853.935C187.877 853.155 187.813 852.374 187.796 851.62C186.213 849.998 184.703 848.354 183.12 846.732C183.246 846.057 183.346 845.429 183.424 844.728C183.033 844.201 182.569 843.695 182.204 843.121C182.283 842.42 182.361 841.718 182.44 841.017C182.17 840.495 181.88 839.9 181.61 839.378C181.784 838.729 181.983 838.033 182.109 837.358C182.093 836.604 182.15 835.829 182.133 835.075C181.214 833.262 180.421 831.333 179.281 829.583C178.552 828.435 177.397 827.608 176.515 826.623C176.372 825.985 176.203 825.395 176.086 824.709C175.917 824.119 175.774 823.481 175.631 822.843C175.562 822.184 175.514 821.599 175.445 820.94C175.276 820.35 175.132 819.712 175.011 819.148C174.915 818.536 174.82 817.925 174.724 817.313C174.555 816.723 174.386 816.132 174.216 815.542C174.047 814.952 173.878 814.361 173.708 813.771C173.587 813.207 173.444 812.569 173.322 812.005C173.153 811.414 173.057 810.803 172.888 810.212C172.719 809.622 172.549 809.032 172.38 808.441C172.211 807.851 172.041 807.261 171.846 806.718C171.676 806.127 171.581 805.516 171.412 804.925C171.242 804.335 170.999 803.766 170.83 803.175C170.735 802.564 170.639 801.952 170.47 801.362C170.3 800.772 170.105 800.229 169.888 799.612C169.719 799.022 169.55 798.431 169.38 797.841C169.211 797.25 169.042 796.66 168.846 796.117C168.677 795.527 168.434 794.958 168.264 794.367C168.095 793.777 167.9 793.234 167.683 792.617C167.366 792.069 167.049 791.521 166.732 790.973C166.71 790.34 166.689 789.708 166.641 789.122C166.224 788.643 165.807 788.164 165.39 787.684C165.442 787.03 165.494 786.376 165.546 785.723C165.161 785.074 164.849 784.405 164.463 783.757C164.59 783.641 164.69 783.572 164.816 783.456C164.764 783.551 164.758 783.672 164.753 783.794C164.637 783.667 164.569 783.567 164.479 783.393L164.674 783.377ZM365.584 617.55L365.647 617.212L365.779 617.534C366.186 618.256 366.593 618.978 366.999 619.7C366.768 620.564 366.489 621.403 366.258 622.268C366.691 622.943 367.124 623.617 367.557 624.292C367.404 624.455 367.204 624.592 367.078 624.709C367.157 624.566 367.236 624.424 367.267 624.255C366.882 623.607 366.422 622.98 366.037 622.332C366.294 621.419 366.573 620.581 366.757 619.689C366.35 618.967 365.917 618.293 365.51 617.571L365.584 617.55ZM528.616 141.925L528.394 141.989C528.23 141.277 528.066 140.565 527.902 139.854C528.207 138.968 528.438 138.103 528.669 137.238C528.236 136.563 527.756 135.862 527.296 135.235C527 134.202 526.73 133.122 526.434 132.088L525.767 130.043C525.941 129.395 526.114 128.746 526.266 128.023C526.071 128.039 525.855 127.982 525.66 127.998C525.729 128.657 525.846 129.342 525.941 129.954C526.179 130.644 526.37 131.308 526.634 131.951C526.904 133.032 527.2 134.065 527.518 135.172C527.972 135.92 528.452 136.621 528.906 137.369C528.654 138.16 528.375 138.999 528.123 139.79C528.287 140.502 528.451 141.214 528.616 141.925ZM210.149 892.252C210.149 892.252 210.307 891.967 210.386 891.824C210.381 891.945 210.376 892.067 210.418 892.214L210.267 894.614C210.974 895.13 211.708 895.598 212.415 896.114C212.572 895.829 212.683 895.518 212.767 895.254C211.95 895.05 211.106 894.892 210.241 894.661C210.177 893.881 210.139 893.053 210.075 892.273L210.149 892.252ZM183.54 811.151C183.487 811.805 183.435 812.459 183.41 813.066C183.653 813.635 183.969 814.183 184.213 814.752C184.287 815.29 184.388 815.78 184.462 816.318C184.552 817.051 184.669 817.736 184.712 818.442C184.807 819.054 184.977 819.644 185.072 820.256C185.141 820.915 185.189 821.5 185.258 822.159C185.623 822.733 185.966 823.234 186.33 823.808C186.204 824.484 186.1 825.232 185.947 825.955C186.559 826.418 187.198 826.834 187.858 827.324L187.657 827.461C187.657 827.461 187.768 827.15 187.741 827.198C187.251 827.298 186.713 827.372 186.197 827.521C186.144 827.057 186.069 826.519 186.016 826.055C186.095 825.354 186.099 824.673 186.178 823.972C185.861 823.424 185.517 822.923 185.227 822.328C185.131 821.716 184.988 821.078 184.919 820.419C184.75 819.829 184.655 819.218 184.512 818.58C184.421 817.847 184.305 817.162 184.214 816.429C184.14 815.891 184.039 815.401 183.918 814.837C183.674 814.267 183.431 813.698 183.188 813.129C183.24 812.475 183.245 811.795 183.223 811.162C183.254 810.435 183.311 809.659 183.342 808.932C181.359 802.991 179.377 797.051 177.441 791.137L177.141 791.343C177.141 791.343 177.483 791.284 177.605 791.29C176.793 797.233 179.318 802.419 181.18 807.795C181.375 808.338 182.556 808.558 183.295 808.906C183.385 809.638 183.402 810.392 183.492 811.125L183.54 811.151ZM201.193 894.86C201.467 894.142 201.714 893.472 201.94 892.729L201.829 892.481C201.829 892.481 202.114 892.639 202.066 892.612C201.814 893.404 201.562 894.195 201.309 894.986C201.404 895.039 201.478 895.017 201.599 895.022L201.22 894.812L201.193 894.86ZM194.399 814.626C194.521 815.19 194.664 815.828 194.786 816.392C194.955 816.983 195.124 817.573 195.341 818.19C195.437 818.801 195.506 819.46 195.554 820.046C195.649 820.657 195.792 821.295 195.888 821.907C196.178 822.502 196.421 823.071 196.712 823.667C196.681 824.394 196.629 825.048 196.598 825.776L197.131 825.823C197.131 825.823 196.841 825.786 196.719 825.781C196.676 825.075 196.607 824.416 196.517 823.683C196.226 823.087 195.983 822.518 195.74 821.949C195.597 821.311 195.454 820.673 195.359 820.062C195.263 819.45 195.194 818.791 195.099 818.179C194.929 817.589 194.76 816.999 194.591 816.408C194.422 815.818 194.326 815.206 194.157 814.616C194.04 813.931 193.897 813.293 193.828 812.634C193.806 812.001 193.858 811.347 193.689 810.757C187.775 790.969 181.909 771.207 178.204 750.906C178.188 750.711 177.977 750.531 177.813 750.379C177.328 749.799 176.842 749.22 176.309 748.614L176.789 748.197C176.789 748.197 176.604 748.529 176.552 748.624C177.037 749.204 177.523 749.783 178.009 750.363C177.869 753.078 177.265 755.847 177.663 758.488C180.1 776.598 186.223 793.77 192.297 810.916C192.535 811.607 193.437 812.107 193.997 812.665C194.113 813.351 194.256 813.988 194.373 814.674L194.399 814.626ZM190.494 832.757C190.436 833.533 190.453 834.287 190.396 835.062C190.834 835.615 191.32 836.195 191.758 836.748C191.363 837.46 191.016 838.198 190.668 838.937C191.354 839.379 192.04 839.821 192.726 840.264C192.331 840.976 192.031 841.741 191.637 842.453C192.322 842.895 192.935 843.359 193.62 843.801C193.541 843.943 193.436 844.133 193.452 844.328C193.4 844.423 193.589 844.528 193.658 844.629C193.6 844.286 193.589 843.97 193.531 843.627C192.524 843.876 191.18 844.62 191.684 842.479C192.01 841.667 192.31 840.902 192.636 840.09C191.971 839.721 191.354 839.379 190.763 838.99C191.063 838.225 191.315 837.434 191.568 836.642C191.103 836.137 190.686 835.657 190.296 835.13C190.332 834.281 190.32 833.406 190.356 832.557C190.33 832.605 190.183 832.647 190.109 832.668C190.204 832.721 190.399 832.705 190.52 832.71L190.494 832.757ZM360.834 529.263C361.493 529.753 362.105 530.216 362.765 530.706C362.592 531.355 362.418 532.003 362.245 532.652C362.831 533.163 363.342 533.695 363.928 534.206C363.729 534.902 363.508 535.525 363.308 536.221C363.308 536.221 363.134 536.311 363.16 536.263C363.36 535.567 363.56 534.871 363.686 534.196C363.147 533.711 362.609 533.226 362.071 532.742C362.27 532.046 362.396 531.371 362.522 530.696C361.91 530.232 361.346 529.795 360.807 529.311C360.496 528.641 360.184 527.972 359.872 527.303C359.681 526.08 359.464 524.904 359.273 523.681C359.447 523.591 359.573 523.475 359.747 523.385C359.695 523.48 359.663 523.649 359.658 523.77C359.542 523.644 359.426 523.517 359.31 523.391C359.522 524.688 359.734 525.985 360.067 527.287C360.331 527.93 360.596 528.573 360.907 529.242L360.834 529.263ZM205.56 879.032L205.321 877.224C205.151 876.633 205.03 876.069 204.86 875.479C205.012 874.756 205.191 873.986 205.343 873.264C204.631 872.869 203.871 872.448 203.159 872.053C202.579 871.421 202.024 870.741 201.444 870.109C201.691 869.998 201.918 869.814 202.166 869.703C201.871 869.787 201.575 869.872 201.354 869.935C202.003 870.668 202.605 871.374 203.302 872.132C203.966 872.501 204.631 872.869 205.296 873.238C205.217 873.939 205.16 874.714 205.082 875.415C205.203 875.979 205.373 876.57 205.468 877.181C205.564 877.793 205.659 878.404 205.829 878.995C205.966 879.754 206.03 880.534 206.168 881.293C206.142 881.341 206.116 881.388 206.116 881.388C205.957 880.555 205.771 879.77 205.565 878.911L205.56 879.032ZM201.051 834.762C201.021 835.489 200.99 836.217 200.938 836.871C200.938 836.871 200.911 836.918 200.985 836.897C201.016 836.169 201 835.415 201.03 834.688L200.946 834.393L201.078 834.714L201.051 834.762ZM363.449 540.333C363.755 541.124 364.136 541.893 364.442 542.684C364.364 543.385 364.212 544.108 364.133 544.809C364.94 545.257 365.753 545.583 366.586 545.983L364.843 548.12C365.798 548.525 366.774 549.004 367.728 549.409C367.649 549.551 367.666 549.746 367.587 549.889C367.449 549.689 367.338 549.441 367.201 549.241C367.343 549.32 367.512 549.351 367.681 549.382C366.726 548.977 365.724 548.546 364.869 548.072C365.459 547.344 365.975 546.637 366.518 545.882C365.732 545.509 364.946 545.135 364.112 544.735C364.191 544.034 364.195 543.354 364.274 542.653C363.988 541.936 363.655 541.193 363.391 540.55C363.518 540.433 363.665 540.391 363.792 540.275C363.739 540.37 363.734 540.491 363.702 540.66C363.634 540.56 363.544 540.386 363.475 540.286L363.449 540.333ZM370.372 574.088L369.791 572.338C370.107 571.768 370.396 571.246 370.733 570.75L370.886 571.145L370.802 570.85C370.539 571.325 370.275 571.799 370.012 572.274C370.155 572.912 370.298 573.55 370.441 574.188L370.679 574.319L370.351 574.014L370.372 574.088ZM196.439 852.936C196.772 853.679 197.153 854.448 197.486 855.191L197.301 855.524C197.301 855.524 197.317 855.16 197.243 855.181C197.005 854.491 196.741 853.848 196.477 853.204C196.503 853.157 196.577 853.136 196.677 853.067C196.582 853.015 196.487 852.962 196.439 852.936ZM366.494 553.876C367.043 554.677 367.618 555.43 368.167 556.231C367.82 556.97 367.499 557.661 367.152 558.399L367.532 558.61C367.532 558.61 367.342 558.505 367.247 558.452C367.499 557.661 367.799 556.896 367.977 556.126C367.471 555.473 366.964 554.819 366.478 554.24C366.557 554.097 366.705 554.055 366.784 553.913L366.721 554.25C366.721 554.25 366.536 554.024 366.494 553.876ZM368.544 564.509C368.544 564.509 368.892 564.329 368.992 564.261C368.913 564.403 368.808 564.593 368.682 564.709C368.755 564.688 368.855 564.619 368.929 564.598L368.544 564.509ZM365.324 609.957C365.412 608.454 365.5 606.952 365.541 605.423L365.304 605.291L365.583 605.57C365.495 607.073 365.481 608.555 365.466 610.036L365.698 610.289L365.276 609.931L365.324 609.957ZM336.885 385.584C336.851 388.11 336.547 390.673 336.929 393.119C340.956 418.44 347.486 443.163 354.58 467.763C363.049 497.161 370.465 526.781 376.135 556.862C382.055 588.508 384.901 620.437 383.165 652.681C382.87 657.917 382.548 663.2 382.226 668.484L383.507 668.635C383.879 666.173 384.346 663.763 384.597 661.295C387.501 631.87 387.072 602.523 382.019 573.344C379.601 559.342 376.915 545.377 373.712 531.56C369.317 512.615 364.306 493.885 359.496 475.019C356.828 464.603 353.865 454.271 351.393 443.839C347.762 428.668 344.52 413.464 340.936 398.319C339.904 394.023 338.16 389.891 336.738 385.627C338.71 380.389 335.468 376.048 335.273 370.353C333.809 371.652 332.913 372.148 332.976 372.37C334.246 376.797 335.589 381.204 336.933 385.611L336.885 385.584ZM217.268 876.833C216.794 877.128 216.251 877.324 215.845 877.72C215.793 877.815 216.242 878.684 216.363 878.69C216.901 878.615 217.423 878.346 217.918 878.124C217.738 877.776 217.559 877.428 217.242 876.88L217.268 876.833ZM331.529 348.106C331.714 348.333 331.92 348.633 332.105 348.859C332.231 348.743 332.458 348.559 332.458 348.559C332.299 348.285 332.067 348.032 331.882 347.805C331.756 347.921 331.656 347.99 331.529 348.106ZM514.997 87.3291L515.461 87.2759L515.186 86.8754L514.949 87.3027L514.997 87.3291ZM315.268 331.086C315.632 331.101 316.138 331.195 316.291 331.032C316.496 330.773 316.417 330.357 316.459 329.945C315.947 329.972 315.51 329.978 314.998 330.005C315.104 330.374 315.21 330.743 315.268 331.086ZM365.354 674.959L365.427 674.379C365.427 674.379 364.932 674.601 364.705 674.785C364.705 674.785 364.79 675.081 364.88 675.255C365.054 675.165 365.18 675.049 365.354 674.959ZM373.933 586.364L373.505 586.127L373.458 586.66L373.933 586.364ZM551.491 222.259L551.623 222.58L551.781 222.296L551.491 222.259ZM366.045 614.143L365.913 613.822L365.755 614.106L366.045 614.143ZM509.74 48.6642L509.608 48.3427L509.45 48.6276L509.74 48.6642ZM317.216 328.131L317.564 327.951L317.279 327.793L317.216 328.131Z" fill="black"/>
<path d="M238.332 958.643C239.591 957.044 240.776 956.026 241.413 954.765C246.223 945.08 250.796 935.263 255.748 925.657C267.058 903.685 278.653 881.871 294.368 862.59C296.854 859.561 299.282 856.749 303.23 855.337C305.723 854.423 307.698 851.979 309.911 850.227C312.045 848.616 313.5 849.237 314.321 852.237C315.243 851.693 316.112 851.244 316.934 850.768C319.475 849.321 320.989 850.844 321.023 852.91C321.073 855.172 320.479 857.699 319.305 859.593C301.858 887.597 286.194 916.527 272.593 946.663C268.594 955.556 264.121 964.187 259.478 972.785C257.452 976.441 255.225 979.676 249.984 980.619C246.068 981.303 242.395 984.233 238.062 984.996C230.302 986.343 222.962 985.812 216.198 981.442C206.411 975.024 196.724 968.537 186.937 962.119C172.518 952.637 156.726 946.304 139.892 942.745C137.846 942.293 135.605 942.417 133.443 942.398C132.594 942.362 131.772 942.837 130.897 942.848C124.29 942.786 123.103 941.569 122.473 934.083C125.093 933.052 127.86 931.979 130.632 930.785C131.523 930.41 132.809 929.881 133.009 929.185C134.065 925.488 137.27 924.968 140.085 924.48C143.902 923.865 147.872 923.645 151.748 923.931C171.554 925.6 190.819 929.699 208.691 938.551C215.807 942.061 222.229 947.048 228.866 951.534C232.079 953.688 235.034 956.195 238.332 958.643Z" fill="black"/>
<path d="M185.269 865.92C184.192 863.834 182.793 861.879 181.963 859.681C172.933 834.876 164.716 809.839 158.517 784.182C158.019 782.169 158.16 780.012 158.005 777.94L157.857 777.982C158.433 779.295 159.204 780.591 159.633 781.946C164.235 797.717 168.811 813.536 173.487 829.287C173.995 831.058 175.167 832.638 176.044 834.304L175.912 833.982C176.076 834.694 176.314 835.384 176.478 836.096L176.393 835.801C176.583 836.465 176.795 837.203 176.986 837.867L176.853 837.546C178.656 842.579 180.385 847.634 182.188 852.668L182.056 852.346C182.22 853.058 182.458 853.748 182.622 854.46L182.537 854.165C183.316 858.135 184.143 862.13 184.922 866.1L185.122 865.963L185.269 865.92Z" fill="black"/>
<path d="M334.935 485.736C334.349 484.666 333.52 483.586 333.181 482.405C329.472 469.053 325.864 455.632 322.302 442.237C322.011 441.083 322.311 439.759 322.362 438.547L322.215 438.589C322.711 439.485 323.403 440.365 323.678 441.324C327.26 454.233 330.815 467.19 334.25 480.142C334.731 481.961 334.601 483.875 334.787 485.778L334.935 485.736Z" fill="black"/>
<path d="M348.908 541.148C348.348 540.031 347.566 538.977 347.275 537.823C343.93 524.486 340.638 511.054 337.393 497.649C337.165 496.716 337.407 495.608 337.474 494.591L337.327 494.633C339.517 501.992 341.68 509.398 343.965 516.809C344.69 519.197 345.81 521.431 346.708 523.729L346.624 523.434C346.9 526.07 347.151 528.754 347.454 531.342C347.873 534.616 348.293 537.89 348.713 541.164L348.86 541.122L348.908 541.148Z" fill="black"/>
<path d="M353.231 562.91C351.79 555.656 350.349 548.402 348.908 541.148L348.76 541.191C349.585 543.51 350.336 545.85 351.16 548.169C351.705 549.651 352.397 551.089 353.063 552.576L352.978 552.28C352.997 555.829 353.017 559.377 353.083 562.952L353.231 562.91Z" fill="black"/>
<path d="M191.434 884.359C189.7 879.426 188.014 874.519 186.253 869.633L186.058 869.649C188.804 874.212 191.229 878.908 191.26 884.449L191.434 884.359Z" fill="black"/>
<path d="M321.347 435.003C319.123 430.729 317.659 426.317 318.545 421.471L318.276 421.508C319.381 424.106 320.459 426.752 321.563 429.35L321.505 429.008C321.743 429.698 321.907 430.41 322.145 431.1L322.06 430.805C322.298 431.496 322.462 432.207 322.7 432.898L322.642 432.555C322.194 433.362 321.747 434.169 321.273 435.024L321.421 434.982L321.347 435.003Z" fill="black"/>
<path d="M357.306 590.493C356.712 586.191 356.117 581.889 355.496 577.635L355.349 577.677C356.284 579.685 357.193 581.741 358.128 583.749L358.043 583.453C357.724 585.821 357.404 588.189 357.085 590.557L357.233 590.514L357.306 590.493Z" fill="black"/>
<path d="M158.052 777.969C155.702 774.37 154.897 770.447 155.636 766.202L155.488 766.245C156.424 768.253 157.332 770.308 158.268 772.316L158.209 771.973C158.447 772.664 158.611 773.376 158.849 774.066L158.765 773.771C159.003 774.461 159.167 775.173 159.405 775.864L159.346 775.521C158.899 776.328 158.452 777.135 157.978 777.99L158.125 777.947L158.052 777.969Z" fill="black"/>
<path d="M358.967 606.309C358.542 602.598 358.116 598.886 357.691 595.174L357.496 595.19C358.39 598.169 359.258 601.194 360.151 604.173L360.093 603.83C359.646 604.637 359.198 605.444 358.751 606.251L358.899 606.209L358.967 606.309Z" fill="black"/>
<path d="M355.523 577.587C355.273 575.463 354.976 573.312 354.726 571.187L354.483 571.177C354.781 573.328 355.078 575.479 355.375 577.63L355.523 577.587Z" fill="black"/>
<path d="M354.101 569.29C353.804 567.139 353.528 565.062 353.231 562.911L353.083 562.953C353.38 565.104 353.678 567.255 353.927 569.38L354.101 569.29Z" fill="black"/>
<path d="M359.404 610.896C357.81 609.516 357.729 607.982 358.993 606.262L358.846 606.304C359.442 607.131 360.012 608.006 360.609 608.833L360.551 608.491C360.103 609.298 359.656 610.105 359.209 610.912L359.43 610.849L359.404 610.896Z" fill="black"/>
<path d="M200.898 905.246L198.332 901.589L198.111 901.652C198.918 902.1 199.725 902.547 200.532 902.995L200.447 902.7C200.659 903.437 200.85 904.102 201.061 904.84L201.024 904.571C200.771 904.803 200.734 905.093 200.867 905.415L200.946 905.272L200.898 905.246Z" fill="black"/>
<path d="M359.611 618.583C359.483 617.023 359.329 615.51 359.201 613.949L359.058 613.87C359.16 615.478 359.288 617.039 359.416 618.599L359.611 618.583Z" fill="black"/>
<path d="M357.739 595.2C357.61 593.64 357.482 592.079 357.307 590.492L357.159 590.534C357.287 592.095 357.415 593.656 357.543 595.216L357.739 595.2Z" fill="black"/>
<path d="M335.977 489.231C335.638 488.05 335.3 486.87 334.961 485.689L334.813 485.731C335.152 486.912 335.49 488.093 335.829 489.273L336.003 489.184L335.977 489.231Z" fill="black"/>
<path d="M192.428 887.829L191.46 884.313L191.286 884.403C191.625 885.583 191.963 886.764 192.302 887.945L192.428 887.829Z" fill="black"/>
<path d="M195.138 893.801C194.847 892.647 194.604 891.519 194.339 890.317L194.023 890.328C194.361 891.509 194.626 892.71 194.965 893.891L195.138 893.801Z" fill="black"/>
<path d="M490.646 41.121C491.907 41.7578 493.12 42.3683 494.407 42.9576L494.46 42.8627C493.173 42.2734 491.933 41.7103 490.646 41.121Z" fill="black"/>
<path d="M198.331 901.591C197.782 900.79 197.254 900.063 196.705 899.262L196.489 899.204C197.038 900.005 197.587 900.806 198.089 901.581L198.31 901.517L198.331 901.591Z" fill="black"/>
<path d="M358.915 662.949C358.983 661.931 359.024 660.961 359.044 659.917L358.796 660.028C359.223 660.264 359.651 660.501 360.078 660.738L360.041 660.469C359.594 661.277 359.12 662.131 358.673 662.938L358.868 662.922L358.915 662.949Z" fill="black"/>
<path d="M359.249 613.975C359.316 612.957 359.384 611.94 359.451 610.922L359.23 610.985C359.189 611.956 359.121 612.973 359.08 613.944L359.249 613.975Z" fill="black"/>
<path d="M528.541 184.833C528.582 183.863 528.645 182.966 528.686 181.996L528.491 182.012C528.918 182.249 529.346 182.486 529.82 182.749L529.757 182.528C529.31 183.335 528.836 184.189 528.341 184.97L528.541 184.833Z" fill="black"/>
<path d="M526.312 153.807C525.98 153.622 525.573 153.459 525.215 153.323L524.972 153.312C525.4 153.549 525.827 153.786 526.302 154.049L526.286 153.854L526.312 153.807Z" fill="black"/>
<path d="M523.676 147.813C523.738 146.917 523.753 145.994 523.789 145.145L523.621 145.114C524.048 145.351 524.475 145.588 524.95 145.851L524.865 145.556C524.418 146.363 523.971 147.17 523.523 147.977L523.676 147.813Z" fill="black"/>
<path d="M202.96 911.603C202.48 910.902 202.047 910.227 201.566 909.527L201.419 909.569C201.852 910.243 202.306 910.992 202.739 911.666L202.96 911.603Z" fill="black"/>
<path d="M206.344 921.175C207.431 921.902 208.518 922.628 209.605 923.355C208.523 922.507 207.415 921.707 206.333 920.859L206.37 921.128L206.344 921.175Z" fill="black"/>
<path d="M194.339 890.316C193.695 889.463 193.072 888.683 192.428 887.829L192.302 887.945C192.877 888.699 193.474 889.526 194.049 890.28L194.366 890.269L194.339 890.316Z" fill="black"/>
<path d="M509.408 81.0641C509.197 80.885 508.938 80.6797 508.727 80.5006C508.817 80.6745 508.859 80.8221 509.002 80.9011C509.144 80.98 509.365 80.9165 509.534 80.948L509.455 81.0904L509.408 81.0641Z" fill="black"/>
<path d="M354.725 571.188C354.535 570.523 354.318 569.907 354.127 569.243L353.954 569.332C354.123 569.923 354.34 570.539 354.509 571.13L354.751 571.14L354.725 571.188Z" fill="black"/>
<path d="M186.279 869.585C186.11 868.995 185.941 868.405 185.771 867.814L185.529 867.804L186.037 869.575L186.232 869.559L186.279 869.585Z" fill="black"/>
<path d="M185.771 867.815C185.628 867.177 185.411 866.561 185.268 865.923L185.068 866.06C185.237 866.65 185.407 867.241 185.576 867.831L185.818 867.841L185.771 867.815Z" fill="black"/>
<path d="M195.626 895.497C195.457 894.907 195.288 894.316 195.092 893.773L194.918 893.863C195.087 894.454 195.257 895.044 195.426 895.634L195.531 895.444L195.626 895.497Z" fill="black"/>
<path d="M196.282 897.225C196.039 896.656 195.87 896.065 195.627 895.496L195.474 895.66C195.717 896.229 195.886 896.819 196.129 897.389L196.235 897.199L196.282 897.225Z" fill="black"/>
<path d="M196.705 899.261C196.588 898.576 196.398 897.911 196.281 897.226L196.176 897.416C196.271 898.028 196.441 898.618 196.536 899.229L196.726 899.335L196.705 899.261Z" fill="black"/>
<path d="M529.09 186.754C528.899 186.09 528.73 185.499 528.54 184.835L528.34 184.973C528.767 185.209 529.194 185.446 529.669 185.709L529.658 185.393C529.395 185.868 529.132 186.343 528.869 186.817L529.09 186.754Z" fill="black"/>
<path d="M200.91 907.24C200.888 906.607 200.893 905.927 200.897 905.247C200.897 905.247 200.818 905.389 200.845 905.342C200.866 905.975 200.814 906.629 200.789 907.235L200.936 907.193L200.91 907.24Z" fill="black"/>
<path d="M528.686 181.997C528.274 181.396 527.836 180.843 527.424 180.242L527.461 180.511C528.063 180.658 528.69 180.757 529.339 180.931L529.275 180.709C529.038 181.137 528.775 181.611 528.538 182.039L528.733 182.023L528.686 181.997Z" fill="black"/>
<path d="M527.398 180.289C527.398 180.289 527.635 180.421 527.756 180.426C527.656 180.495 527.535 180.49 527.435 180.558L527.398 180.289Z" fill="black"/>
<path d="M201.566 909.527C201.354 908.789 201.095 908.025 200.91 907.239L200.763 907.282C200.974 908.02 201.233 908.784 201.419 909.569L201.566 909.527Z" fill="black"/>
<path d="M526.766 175.718C526.766 175.718 527.077 175.829 527.246 175.86C527.125 175.855 526.977 175.897 526.903 175.918L526.814 175.744L526.766 175.718Z" fill="black"/>
<path d="M337.474 494.591C337.305 494 337.136 493.41 336.967 492.819L336.819 492.862C336.988 493.452 337.158 494.043 337.327 494.633L337.474 494.591Z" fill="black"/>
<path d="M525.215 153.323C525.045 152.733 524.876 152.142 524.733 151.504L524.491 151.494C524.918 151.731 525.393 151.994 525.82 152.231L525.735 151.936C525.499 152.363 525.235 152.838 524.999 153.265L525.241 153.275L525.215 153.323Z" fill="black"/>
<path d="M336.966 492.821C336.797 492.23 336.627 491.64 336.458 491.05L336.263 491.066C336.432 491.656 336.602 492.246 336.771 492.837L336.918 492.794L336.966 492.821Z" fill="black"/>
<path d="M524.734 151.503C524.565 150.912 524.417 150.396 524.248 149.805L524.031 149.748C524.459 149.985 524.886 150.221 525.313 150.458L525.228 150.163C524.992 150.59 524.755 151.018 524.492 151.492L524.734 151.503Z" fill="black"/>
<path d="M336.505 491.076C336.336 490.486 336.167 489.896 335.976 489.231L335.802 489.321C335.972 489.912 336.141 490.502 336.31 491.092L336.505 491.076Z" fill="black"/>
<path d="M524.247 149.806C524.057 149.142 523.866 148.477 523.702 147.766L523.55 147.929C523.719 148.52 523.909 149.184 524.079 149.774L524.295 149.832L524.247 149.806Z" fill="black"/>
<path d="M523.498 143.432C523.777 143.711 524.11 143.896 524.495 143.985L524.384 143.737C524.147 144.165 523.91 144.592 523.647 145.067L523.816 145.098C523.741 144.56 523.741 144.002 523.667 143.464L523.524 143.385L523.498 143.432Z" fill="black"/>
<path d="M523.665 143.465C523.237 142.669 522.783 141.921 522.355 141.125L522.419 141.347C522.778 142.042 523.137 142.738 523.497 143.434L523.665 143.465Z" fill="black"/>
<path d="M522.308 141.099C522.308 141.099 522.545 141.23 522.64 141.283C522.593 141.257 522.493 141.325 522.371 141.32L522.261 141.073L522.308 141.099Z" fill="black"/>
<path d="M202.786 911.693C203.103 912.241 203.494 912.768 203.811 913.316L203.984 913.226C203.668 912.678 203.351 912.13 203.008 911.629L202.786 911.693Z" fill="black"/>
<path d="M521.084 133.341C521.717 133.879 522.329 134.342 522.962 134.879L522.862 134.948C522.255 134.363 521.649 133.779 521.02 133.12L521.084 133.341Z" fill="black"/>
<path d="M520.973 133.094C520.973 133.094 521.163 133.2 521.237 133.179C521.184 133.274 521.11 133.295 521.036 133.316L520.973 133.094Z" fill="black"/>
<path d="M203.764 913.289C203.538 914.032 203.264 914.75 203.038 915.493L203.128 915.667C203.407 914.828 203.659 914.037 203.938 913.199L203.79 913.241L203.764 913.289Z" fill="black"/>
<path d="M520.332 124.173C519.936 123.767 519.562 123.436 519.166 123.03L519.277 123.278C519.704 123.515 520.179 123.778 520.606 124.015L520.332 124.173Z" fill="black"/>
<path d="M203.037 915.495C203.037 915.495 203.327 915.532 203.496 915.563C203.348 915.605 203.274 915.626 203.127 915.669L203.037 915.495Z" fill="black"/>
<path d="M519.165 123.03C519.555 122.998 519.872 122.987 520.262 122.955C520.056 122.655 519.924 122.333 519.718 122.033L520.061 121.975C519.824 122.402 519.561 122.877 519.324 123.304L519.213 123.057L519.165 123.03Z" fill="black"/>
<path d="M206.28 920.954C206.28 920.954 206.47 921.06 206.564 921.112C206.538 921.16 206.464 921.181 206.391 921.202L206.353 920.933L206.28 920.954Z" fill="black"/>
<path d="M516.466 107.073C516.26 106.773 516.154 106.404 515.922 106.151C515.827 106.098 515.51 106.109 515.315 106.125C515.743 106.362 516.217 106.625 516.645 106.862L516.445 106.999L516.466 107.073Z" fill="black"/>
<path d="M515.337 106.2C515.574 105.772 515.784 105.392 515.926 104.912L516.121 104.896C515.884 105.324 515.621 105.799 515.384 106.226L515.337 106.2Z" fill="black"/>
<path d="M514.314 99.983C514.314 99.983 514.245 99.324 514.16 99.0288C514.16 99.0288 513.77 99.0609 513.575 99.0769L513.306 99.114C513.733 99.3509 514.208 99.614 514.635 99.8509L514.314 99.983Z" fill="black"/>
<path d="M513.574 99.0771C513.405 98.4867 513.209 97.9438 513.04 97.3534L512.798 97.3431C513.225 97.5799 513.7 97.8432 514.127 98.08L514.042 97.7848C513.806 98.2122 513.569 98.6395 513.306 99.1143L513.574 99.0771Z" fill="black"/>
<path d="M513.013 97.4018L512.506 95.6307L512.263 95.6204C512.69 95.8572 513.165 96.1204 513.592 96.3573L513.508 96.0621C513.271 96.4894 513.008 96.9642 512.771 97.3915L513.013 97.4018Z" fill="black"/>
<path d="M512.506 95.6295C512.221 94.9127 511.909 94.2433 511.671 93.5528L511.83 93.8269C512.257 94.0638 512.732 94.327 513.159 94.5638L513.074 94.2686C512.838 94.6959 512.574 95.1707 512.338 95.598L512.58 95.6084L512.506 95.6295Z" fill="black"/>
<path d="M322.363 438.546C322.193 437.955 322.024 437.365 321.781 436.796L321.633 436.838C321.803 437.429 321.972 438.019 322.141 438.609L322.289 438.567L322.363 438.546Z" fill="black"/>
<path d="M511.67 93.5541C512.039 93.4483 512.456 93.3688 512.825 93.263C512.64 93.0365 512.408 92.7836 512.223 92.557L512.566 92.4987C512.329 92.9261 512.066 93.4009 511.829 93.8282L511.67 93.5541Z" fill="black"/>
<path d="M321.78 436.797C321.611 436.207 321.442 435.616 321.272 435.026L321.125 435.068C321.294 435.659 321.463 436.249 321.633 436.84L321.78 436.797Z" fill="black"/>
<path d="M511.313 89.384C511.313 89.384 511.17 88.7462 511.086 88.451C511.086 88.451 510.743 88.5092 510.521 88.5727L510.279 88.5625C510.706 88.7993 511.181 89.0625 511.608 89.2994L511.313 89.384Z" fill="black"/>
<path d="M510.475 88.5453C510.21 87.9022 509.946 87.2592 509.634 86.5899L509.724 86.7638C510.152 87.0007 510.626 87.2638 511.054 87.5007L510.969 87.2055C510.732 87.6328 510.469 88.1076 510.232 88.5349L510.475 88.5453Z" fill="black"/>
<path d="M509.709 86.5675C509.919 86.1877 510.104 85.8554 510.267 85.4492L510.535 85.412C510.299 85.8393 510.035 86.3141 509.798 86.7414L509.709 86.5675Z" fill="black"/>
<path d="M318.497 421.445C318.328 420.855 318.085 420.286 317.915 419.695L317.768 419.738C317.937 420.328 318.106 420.918 318.276 421.509L318.545 421.472L318.497 421.445Z" fill="black"/>
<path d="M506.196 75.4366L506.107 75.8215L506.286 75.6105L506.196 75.4366Z" fill="black"/>
<path d="M506.286 75.6114C505.626 75.1217 505.014 74.6583 504.381 74.121L504.476 74.1737C503.771 76.4522 505.062 75.8024 506.222 75.39L506.312 75.5639L506.286 75.6114Z" fill="black"/>
<path d="M505.64 71.962C505.218 72.7217 504.824 73.4339 504.403 74.1936L504.308 74.1409C504.702 73.4288 505.145 72.7429 505.587 72.057L505.613 72.0095L505.64 71.962Z" fill="black"/>
<path d="M505.66 72.0364C504.901 71.6153 504.12 71.1203 503.387 70.6518L503.482 70.7044C504.241 71.1255 504.953 71.5203 505.713 71.9414L505.687 71.9889L505.66 72.0364Z" fill="black"/>
<path d="M504.618 68.5411C503.938 67.9776 503.278 67.4878 502.624 66.8768L502.497 66.9929C503.204 67.509 503.938 67.9775 504.623 68.4198L504.571 68.5147L504.618 68.5411Z" fill="black"/>
<path d="M503.808 65.3003C503.371 65.8649 502.96 66.3821 502.523 66.9466C502.523 66.9466 502.649 66.8306 502.623 66.878C502.533 66.1452 502.469 65.3649 502.426 64.6584L502.537 64.9061C502.964 65.143 503.391 65.3799 503.866 65.643L503.855 65.3267L503.808 65.3003Z" fill="black"/>
<path d="M502.426 64.6579C502.769 64.5995 503.112 64.5413 503.455 64.483C503.296 64.2089 503.09 63.9086 502.932 63.6345L503.274 63.5762C503.038 64.0035 502.801 64.4308 502.537 64.9056L502.426 64.6579Z" fill="black"/>
<path d="M500.994 60.6359L500.836 60.9208L501.083 60.8098L500.994 60.6359Z" fill="black"/>
<path d="M499.221 59.467C498.643 61.6293 499.882 61.0745 501.015 60.7096L501.105 60.8835C500.445 60.3938 499.786 59.904 499.126 59.4143L499.221 59.467Z" fill="black"/>
<path d="M500.532 57.214C500.111 57.9737 499.69 58.7334 499.221 59.4667L499.126 59.414C499.595 58.6807 500.037 57.9948 500.506 57.2615L500.532 57.214Z" fill="black"/>
<path d="M500.532 57.214C499.725 56.7666 498.97 56.2242 498.237 55.7556L498.258 55.8294C499.018 56.2505 499.778 56.6717 500.537 57.0927L500.532 57.214Z" fill="black"/>
<path d="M499.585 53.2121C499.111 54.0667 498.706 55.0214 498.28 55.9024C498.28 55.9024 498.259 55.8286 498.232 55.876C498.68 55.0689 499.058 54.1616 499.458 53.3282L499.559 53.2595L499.585 53.2121Z" fill="black"/>
<path d="M496.025 51.7972C496.025 51.7972 496.236 51.9763 496.352 52.1027C496.362 51.8602 496.346 51.665 496.356 51.4225C496.277 51.5649 496.13 51.6072 496.003 51.7233L495.977 51.7708L496.025 51.7972Z" fill="black"/>
<path d="M496.05 51.7502C496.229 50.9802 496.434 50.1628 496.66 49.4192L496.596 49.1978C496.412 50.089 496.255 50.9328 496.071 51.824L496.05 51.7502Z" fill="black"/>
<path d="M496.612 49.3928C496.612 49.3928 496.57 49.2452 496.549 49.1714L496.612 49.3928Z" fill="black"/>
<path d="M493.34 45.7792C493.34 45.7792 493.524 46.0058 493.593 46.1059C493.651 45.8897 493.635 45.6946 493.693 45.4783C493.592 45.547 493.466 45.6631 493.392 45.6842L493.366 45.7317L493.34 45.7792Z" fill="black"/>
<path d="M494.455 42.9827C494.076 43.89 493.745 44.8236 493.34 45.7783C493.671 44.8448 494.05 43.9375 494.455 42.9827Z" fill="black"/>
</svg>
