<svg width="24" height="24" viewBox="0 0 24 24" fill="none" xmlns="http://www.w3.org/2000/svg">
<path d="M12.5657 10.7438C13.5849 9.70953 14.212 8.3007 14.212 6.74811C14.212 3.57352 11.5902 1 8.35599 1C5.12182 1 2.5 3.57352 2.5 6.74811C2.5 9.9227 5.12182 12.4962 8.35599 12.4962C9.41393 12.4962 10.4063 12.2208 11.2629 11.7391M12.5657 10.7438C12.1827 11.1326 11.7442 11.4685 11.2629 11.7391M12.5657 10.7438C12.987 11.4071 13.2004 11.7124 13.7902 12.5808M11.2629 11.7391C11.6842 12.4024 11.8529 12.6614 12.4428 13.5298M21.5 17.4586C21.0085 16.3972 19.6884 14.1752 18.3403 13.7782C16.6551 13.282 15.1806 12.5376 14.7172 12.9925M20.6158 23C19.1834 22.5589 16.0995 21.1474 15.2233 19.0301M14.5909 19.8987C14.7032 20.4639 15.1975 21.404 16.2761 20.6431M14.5909 19.8987C15.2228 19.6092 15.0968 19.0298 14.9704 17.9546C14.844 16.8794 11.1787 13.6952 12.9482 12.7855C14.7176 11.8757 15.6866 15.4321 16.5713 16.3419C17.2791 17.0697 17.8773 16.8105 18.088 16.59M14.5909 19.8987C13.9589 20.1882 13.3695 19.7328 13.4958 17.3757M12.7792 14.7294C12.4562 16.0251 12.2905 18.2527 14.2116 16.797" stroke="white" stroke-linecap="round"/>
</svg>
