<svg width="304" height="250" viewBox="0 0 304 250" fill="none" xmlns="http://www.w3.org/2000/svg">
<path d="M151.156 49.6489C151.156 50.8397 150.711 53.1871 148.927 53.0499" stroke="#EDEDED" stroke-width="2.5" stroke-linecap="round"/>
<path d="M159.561 45.5052L162.304 47.82C163.161 48.5434 163.847 49.6487 163.847 50.9922C163.847 51.7291 163.507 52.2305 163.031 52.5474C161.736 53.4091 160.612 52.2717 160.017 50.8348C159.249 48.9775 156.669 49.0709 154.766 49.7178C153.689 50.084 152.444 50.1706 151.159 49.6487C150.534 49.3953 149.901 48.9983 149.272 48.4201" stroke="#EDEDED" stroke-width="2.5" stroke-linecap="round"/>
<path d="M163.159 43.9311C164.101 44.5718 165.41 45.3069 166.149 46.2895C166.347 46.5531 166.422 46.64 166.479 46.9649C166.851 49.1008 164.002 49.2542 162.345 47.8561L162.302 47.8202L159.559 45.5054" stroke="#EDEDED" stroke-width="2.5" stroke-linecap="round"/>
<path d="M158.016 38.6464C159.937 38.3721 163.846 39.218 165.561 39.6752C168.476 40.5326 169.882 43.2417 167.961 44.4763C166.765 45.2453 164.841 44.7237 163.16 43.9308C162.142 43.4508 161.213 42.8713 160.588 42.4187" stroke="#EDEDED" stroke-width="2.5" stroke-linecap="round"/>
<path d="M139.669 47.7344C140.412 42.7618 144.368 33.0567 154.244 34.0169C158.305 34.4118 161.095 34.9361 162.968 35.4683C165.334 36.1409 168.017 39.5309 165.561 39.6754" stroke="#EDEDED" stroke-width="2.5" stroke-linecap="round"/>
<path d="M0.681495 243.866C-2.19808 241.357 10.5963 241.543 16.9112 241.427C17.8205 242.681 18.4899 242.704 20.1318 242.995C20.8895 244.912 3.56106 246.375 0.681495 243.866Z" fill="#EDEDED"/>
<path d="M97.1809 54.8696C96.4903 56.9027 95.9757 63.509 98.6875 68.9299" stroke="#EDEDED" stroke-width="2.5" stroke-linecap="round"/>
<path d="M95.6021 70.634C100.92 68.7121 111.046 66.3602 111.046 73.0084V74.1622C111.046 74.9411 111.929 75.3824 112.539 74.9053C121.076 68.2345 132.982 57.4417 138.64 49.2112C139.041 48.6397 140.355 47.7709 142.413 48.8683C144.985 50.24 148.414 50.9259 148.757 55.5555C149.1 60.1852 144.985 72.3594 133.496 85.3909C124.306 95.8162 123.764 97.9081 122.18 102.538C120.008 108.882 115.458 125.583 114.635 141.632" stroke="#EDEDED" stroke-width="2.5" stroke-linecap="round"/>
<path d="M119.199 19.2045C124.365 23.325 132.382 32.2191 124.589 35.8373C124.132 36.0492 123.88 36.5622 124.01 37.0515C125.544 42.8039 125.301 54.6823 113.408 62.7263C113.231 62.8458 113.094 63.0237 113.03 63.2282L110.691 70.6448" stroke="#EDEDED" stroke-width="2.5" stroke-linecap="round"/>
<path d="M113.812 49.3826C113.625 50.3086 114.111 52.2221 117.55 52.469" stroke="#EDEDED" stroke-width="2.5" stroke-linecap="round"/>
<path d="M123.036 28.292C123.036 30.0453 122.491 31.5872 121.666 32.6643C120.842 33.7408 119.798 34.2934 118.75 34.2934C117.701 34.2934 116.657 33.7408 115.833 32.6643C115.008 31.5872 114.463 30.0453 114.463 28.292C114.463 26.5387 115.008 24.9968 115.833 23.9198C116.657 22.8432 117.701 22.2906 118.75 22.2906C119.798 22.2906 120.842 22.8432 121.666 23.9198C122.491 24.9968 123.036 26.5387 123.036 28.292Z" stroke="#EDEDED" stroke-width="2.5" stroke-linecap="round"/>
<path d="M103.489 33.6078L113.777 30.1784" stroke="#EDEDED" stroke-width="2.5" stroke-linecap="round"/>
<path d="M111.719 26.406C111.989 25.3393 112.986 22.8851 114.805 21.6049" stroke="#EDEDED" stroke-width="2.5" stroke-linecap="round"/>
<path d="M119.607 29.4925C120.365 29.4925 120.979 28.9551 120.979 28.2922C120.979 27.6293 120.365 27.0919 119.607 27.0919C118.85 27.0919 118.235 27.6293 118.235 28.2922C118.235 28.9551 118.85 29.4925 119.607 29.4925Z" fill="#EDEDED"/>
<path d="M95.6018 70.3018L55.8213 116.255" stroke="#EDEDED" stroke-width="2.5" stroke-linecap="round"/>
<path d="M55.8213 116.399C58.7452 115.999 66.346 116.193 73.3624 120.175C82.1332 125.153 91.4193 133.908 114.463 141.632" stroke="#EDEDED" stroke-width="2.5" stroke-linecap="round"/>
<path d="M114.464 141.632L106.919 146.776" stroke="#EDEDED" stroke-width="2.5" stroke-linecap="round"/>
<path d="M55.8576 116.255C55.2747 118.022 54.6962 122.141 59.5937 127.229" stroke="#EDEDED" stroke-width="2.5" stroke-linecap="round"/>
<path d="M84.6287 82.9905C78.3497 88.263 62.428 99.386 48.9728 101.699C45.8335 103.003 40.4291 106.665 43.9274 110.883C47.4257 115.101 49.758 120.238 50.4869 122.278C51.0475 124.15 52.443 126.758 55.8068 120.771" stroke="#EDEDED" stroke-width="2.5" stroke-linecap="round"/>
<path d="M44.8475 112.483C42.198 114.045 36.0197 117.031 32.5021 116.475C28.9845 115.92 26.6394 117.401 25.9065 118.211C25.5119 118.847 25.2639 120.155 27.4286 120.294C29.5932 120.433 32.1638 120.351 33.1785 120.294" stroke="#EDEDED" stroke-width="2.5" stroke-linecap="round"/>
<path d="M36.2737 117.97C35.0574 119.299 30.922 122.321 24.1106 123.772C22.7785 124.014 20.983 125.404 23.4156 127.036C25.5007 128.305 31.2695 127.145 34.1887 125.404" stroke="#EDEDED" stroke-width="2.5" stroke-linecap="round"/>
<path d="M34.0721 125.171C31.9549 126.269 28.1438 129.19 29.8376 132.099C30.3805 132.677 32.6715 132.723 37.4923 128.289L41.0753 125.171" stroke="#EDEDED" stroke-width="2.5" stroke-linecap="round"/>
<path d="M41.6023 125.238L37.8364 128.383C36.7522 131.238 35.0976 138.17 39.5482 134.325C42.8006 131.005 42.1158 128.174 43.4853 127.335C44.8547 126.496 47.9359 123.257 49.3053 121.742" stroke="#EDEDED" stroke-width="2.5" stroke-linecap="round"/>
<path d="M41.4208 119.685C40.9646 121.245 40.5996 124.87 42.7894 126.886" stroke="#EDEDED" stroke-width="2.5" stroke-linecap="round"/>
<path d="M82.9116 234.911C85.0393 234.343 89.3281 231.472 89.4623 224.526C89.5969 217.58 92.4299 205.628 93.8294 200.521L107.603 139.232" stroke="#EDEDED" stroke-width="2.5" stroke-linecap="round"/>
<path d="M113.029 40.0016C113.374 40.0016 113.654 39.7218 113.654 39.3766C113.654 39.0315 113.374 38.7516 113.029 38.7516C112.684 38.7516 112.404 39.0315 112.404 39.3766C112.404 39.7218 112.684 40.0016 113.029 40.0016Z" fill="#EDEDED"/>
<path d="M115.431 42.4024C115.776 42.4024 116.056 42.1226 116.056 41.7774C116.056 41.4322 115.776 41.1524 115.431 41.1524C115.085 41.1524 114.806 41.4322 114.806 41.7774C114.806 42.1226 115.085 42.4024 115.431 42.4024Z" fill="#EDEDED"/>
<path d="M110.288 43.4312C110.633 43.4312 110.913 43.1513 110.913 42.8062C110.913 42.461 110.633 42.1812 110.288 42.1812C109.942 42.1812 109.663 42.461 109.663 42.8062C109.663 43.1513 109.942 43.4312 110.288 43.4312Z" fill="#EDEDED"/>
<path d="M59.9871 35.0348C68.2363 19.6207 80.5536 17.6827 85.6815 18.6402C96.3309 2.24563 111.038 -3.16281 119.997 1.73873C127.164 5.65977 121.293 15.5416 117.461 19.9926L113.743 14.5841C111.173 19.5869 103.825 17.739 100.219 16.6122C103.318 23.1474 108.265 40.0381 97.8522 55.3171C87.4396 70.5962 74.3556 70.8662 67.7627 66.4721C61.6773 62.1342 51.7379 50.4493 59.9871 35.0348Z" fill="#EDEDED"/>
<path d="M118.235 85.3911C120.276 87.3643 123.976 92.7679 123.208 99.2799" stroke="#EDEDED" stroke-width="2.5" stroke-linecap="round"/>
<path d="M55.1357 236.969C56.3435 238.748 60.3663 242.106 66.7956 241.305" stroke="#EDEDED" stroke-width="2.5" stroke-linecap="round"/>
<path d="M65.3527 117.627C63.207 123.744 53.1539 136.317 44.1742 152.12C38.1877 162.032 23.9105 184.166 14.6936 193.409C13.4511 195.165 12.2876 199.152 17.5739 201.055C21.6401 202.754 23.47 206.696 24.0122 210.91C24.6899 216.178 33.3308 220.086 39.0913 216.178C43.6829 213.063 56.8853 190.625 66.8595 177.947C69.3991 174.719 71.7293 172.123 73.6548 170.641" stroke="#EDEDED" stroke-width="2.5" stroke-linecap="round"/>
<path d="M66.4197 177.641L55.1357 236.968C60.8712 235.438 76.6264 232.548 86.3429 232.548" stroke="#EDEDED" stroke-width="2.5" stroke-linecap="round"/>
<path d="M10.8578 231.814C1.70127 213.832 10.1893 201.866 14.78 198.903C21.8963 201.17 22.0886 208.729 23.2426 212.32L20.5792 219.709C18.797 222.887 19.8366 229.103 20.5792 231.814C23.6576 244.373 19.0113 245.581 16.7312 242.217L10.8578 231.814Z" fill="#EDEDED"/>
<path d="M60.4473 248.68C57.2598 246.187 63.564 245.22 69.9609 244.856C72.1895 246.824 86.9917 247.496 87.714 247.952C80.9041 250.138 63.2406 250.865 60.4473 248.68Z" fill="#EDEDED"/>
<path d="M91.4594 247.613C67.8059 250.886 62.8968 241.443 63.3989 235.924C67.4669 234.209 78.653 233.586 83.9263 233.196C82.4195 236.781 84.3028 236.313 85.6211 237.287C87.3164 238.456 92.0243 239.885 94.661 240.015C106.525 240.599 97.2348 246.769 91.4594 247.613Z" fill="#EDEDED"/>
<path d="M204.389 29.1403C213.484 31.0057 209.22 43.5253 215.886 46.8569C223.842 50.8336 226.582 28.4439 225.546 18.9405C225.25 14.7736 220.397 12.9203 219.743 18.9405C219.047 25.3354 226.983 50.133 236.079 40.5643L242.151 33.539C243.839 31.4601 247.165 28.5719 249.977 33.539C252.788 38.5058 257.267 36.8645 259.155 35.4228L265.089 31.1075" stroke="#EDEDED" stroke-width="2.5" stroke-linecap="round"/>
<path d="M257.686 11.5726L300.34 4.34726C301.327 4.18004 301.92 5.40629 301.176 6.07629L282.026 23.3229C281.952 23.3895 281.871 23.4464 281.776 23.4764C279.935 24.0586 273.67 21.6547 269.892 20.001C269.328 19.7543 268.674 20.0606 268.499 20.6505C267.762 23.1344 266.936 25.3997 266.414 26.7289C266.242 27.1659 265.776 27.3377 265.576 26.9131C264.834 25.3408 264.697 20.8456 264.74 17.8758C264.747 17.3621 264.37 16.9257 263.873 16.7959C261.195 16.0963 257.818 13.8947 256.332 12.7727" stroke="#EDEDED" stroke-width="2.5" stroke-linecap="round"/>
<path d="M268.994 19.6814C273.707 17.4474 285.63 11.8523 295.617 7.34375" stroke="#EDEDED" stroke-width="2.5" stroke-linecap="round"/>
<path d="M266.073 27.4737L274.839 22.2789" stroke="#EDEDED" stroke-width="2.5" stroke-linecap="round"/>
<path d="M268.019 15.1359L280.032 11.2398" stroke="#EDEDED" stroke-width="2.5" stroke-linecap="round"/>
</svg>
