<svg width="24" height="24" viewBox="0 0 24 24" fill="none" xmlns="http://www.w3.org/2000/svg">
<path d="M11.5713 17.6674C12.9376 16.8079 17.9474 22.1802 19.9968 22.3951C22.0463 22.6099 18.8582 15.5185 17.9474 13.5845C17.3855 12.3916 20.2171 9.75926 22.7262 7.79555C23.2984 7.3477 22.9079 6.43871 22.1616 6.50274L15.3716 7.08525C15.0163 7.11572 14.6884 6.90854 14.5822 6.59342C14.1138 5.20348 13.2072 2.8342 12.2544 1.33571C12.129 1.13845 11.9924 1.03362 11.8476 1.00692M11.5713 17.6674L11.8476 1.00692M11.5713 17.6674C11.4091 17.7695 11.1891 17.9502 10.9255 18.1853M2.00719 8.42712C2.33596 8.36064 2.66826 8.30058 3 8.2464M2.00719 8.42712L2.30989 10.8118M2.00719 8.42712C1.80536 8.46793 1.6373 8.51736 1.5 8.57458M7.815 7.79149C8.15074 7.78195 8.44315 7.57476 8.53484 7.2758M7.815 7.79149L8 20.8944M7.815 7.79149C7.57604 7.79828 7.30189 7.8092 7 7.82525M8.53484 7.2758C8.79485 6.42801 9.129 5.4389 9.49762 4.5M8.53484 7.2758V20.4171M11.8476 1.00692C11.6388 0.968427 11.4129 1.09228 11.1788 1.33571M11.1788 1.33571L10.9255 18.1853M11.1788 1.33571C10.8421 1.68569 10.4885 2.28283 10.144 3M10.9255 18.1853C10.7418 18.3491 10.5369 18.5393 10.3155 18.7476M10.3155 18.7476L10.144 3M10.3155 18.7476C10.0621 18.986 9.78703 19.2482 9.49762 19.5218M10.144 3C9.92239 3.46158 9.70457 3.97288 9.49762 4.5M9.49762 4.5V19.5218M9.49762 19.5218C9.19008 19.8124 8.86629 20.1158 8.53484 20.4171M8.53484 20.4171C8.3583 20.5775 8.17959 20.7374 8 20.8944M8 20.8944C7.76128 21.1031 7.52102 21.3067 7.28226 21.5M7.28226 21.5L7 7.82525M7.28226 21.5C7.01829 21.7137 6.75616 21.9148 6.5 22.096M7 7.82525C6.75488 7.83828 6.49148 7.85469 6.21378 7.87502M6.21378 7.87502L6.5 22.096M6.21378 7.87502C5.9276 7.89597 5.62624 7.92109 5.31407 7.95096M6.5 22.096C6.28791 22.2461 6.0799 22.3826 5.87833 22.5015M5.87833 22.5015L5.63178 16.5M5.87833 22.5015C5.68354 22.6164 5.49475 22.7148 5.31407 22.7931M5.63178 16.5C6.2426 15.2973 6.57154 14.2387 5.87833 13.5845C5.75217 13.4655 5.60963 13.3413 5.45464 13.213M5.63178 16.5C5.46695 16.8246 5.28158 17.1596 5.09024 17.5M5.09024 17.5L5.31407 22.7931M5.09024 17.5C4.85919 17.911 4.61943 18.3299 4.39656 18.7476M5.31407 22.7931C5.0952 22.888 4.88825 22.9533 4.69695 22.9826M4.69695 22.9826L4.39656 18.7476M4.69695 22.9826C4.43099 23.0233 4.19531 22.9943 4 22.8782M4.39656 18.7476C4.09445 19.3137 3.82338 19.8777 3.64712 20.4171M3.64712 20.4171C3.41143 21.1383 3.34527 21.8155 3.60116 22.3951C3.70207 22.6236 3.83697 22.7813 4 22.8782M3.64712 20.4171L4 22.8782M5.45464 13.213L5.31407 7.95096M5.45464 13.213C5.22512 13.023 4.9683 12.824 4.69695 12.6196M5.31407 7.95096C5.01679 7.9794 4.70969 8.01216 4.39656 8.04973M4.39656 8.04973L4.69695 12.6196M4.39656 8.04973C4.13491 8.08113 3.86904 8.11589 3.60116 8.15431M4.69695 12.6196C4.42839 12.4173 4.14561 12.2097 3.86097 12M3.86097 12L3.60116 8.15431M3.86097 12C3.57155 11.7868 3.28022 11.5716 3 11.3578M3.60116 8.15431C3.40159 8.18293 3.2009 8.21359 3 8.2464M3 8.2464V11.3578M3 11.3578C2.75899 11.1739 2.52619 10.9912 2.30989 10.8118M2.30989 10.8118C1.99708 10.5523 1.71877 10.2999 1.5 10.0613M1.5 8.57458C0.756032 8.88464 0.915379 9.42358 1.5 10.0613M1.5 8.57458V10.0613" stroke="black"/>
</svg>
