<svg width="24" height="24" viewBox="0 0 24 24" fill="none" xmlns="http://www.w3.org/2000/svg">
<path d="M12.2544 1.33571C12.1073 1.10424 11.9447 1.00003 11.7715 1M12.2544 1.33571L10.3104 18.7524M12.2544 1.33571C12.4513 1.64531 12.6462 1.99209 12.8356 2.35971M8.53484 7.2758C8.44315 7.57476 8.15074 7.78195 7.815 7.79149M8.53484 7.2758L5 22.9109M8.53484 7.2758C8.7697 6.51003 9.06504 5.62896 9.39164 4.77373M7.815 7.79149C7.52689 7.79968 7.18762 7.81387 6.81026 7.83581M7.815 7.79149L6.24384 14.2617M2.00719 8.42712C0.545359 8.72273 0.855026 9.47015 1.79459 10.3586M2.00719 8.42712L1.79459 10.3586M2.00719 8.42712C2.33596 8.36064 2.66826 8.30058 3 8.2464M11.5713 17.6674C11.4046 17.7723 11.177 17.9603 10.9036 18.2049M11.5713 17.6674L13.2937 3.30796M11.5713 17.6674C11.779 17.5368 12.0708 17.5501 12.4237 17.6674M17.9474 13.5845L17.2515 20.9164M17.9474 13.5845C18.123 13.9574 18.3833 14.5221 18.6743 15.1891M17.9474 13.5845C17.7806 13.2305 17.9127 12.7497 18.2466 12.1972M1.79459 10.3586C2.00291 10.5556 2.24219 10.7595 2.5 10.967M3 8.2464L2.5 10.967M3 8.2464C3.33532 8.19164 3.67007 8.14287 4 8.09954M2.5 10.967C2.75067 11.1688 3.01886 11.3738 3.29311 11.5792M4 8.09954L3.29311 11.5792M4 8.09954C4.33998 8.05489 4.67486 8.01601 5 7.98227M3.29311 11.5792C3.56937 11.786 3.85179 11.9931 4.12867 12.1972M5 7.98227L4.12867 12.1972M5 7.98227C5.30244 7.95089 5.59646 7.92396 5.87833 7.90098M4.12867 12.1972C4.38188 12.3838 4.63045 12.568 4.86547 12.7474M5.87833 7.90098L4.86547 12.7474M5.87833 7.90098C6.20753 7.87414 6.52015 7.85268 6.81026 7.83581M4.86547 12.7474C5.09229 12.9204 5.30648 13.0889 5.5 13.2507M6.81026 7.83581L5.5 13.2507M5.5 13.2507C5.63751 13.3656 5.76458 13.4772 5.87833 13.5845C6.08264 13.7773 6.19816 14.0053 6.24384 14.2617M6.24384 14.2617C6.36397 14.936 6.00114 15.8071 5.5 16.7539M5 22.9109C4.82232 22.9663 4.65485 22.9973 4.5 22.9998M5 22.9109C5.32224 22.8106 5.67807 22.6304 6.05316 22.3951M4.5 22.9998L5.5 16.7539M4.5 22.9998C4.22458 23.0044 3.98905 22.9189 3.80693 22.7199M5.5 16.7539C4.49252 18.6572 2.92607 20.8661 3.60116 22.3951C3.65896 22.526 3.72792 22.6336 3.80693 22.7199M4.5 18.5L3.80693 22.7199M6.05316 22.3951L9.39164 4.77373M6.05316 22.3951C6.35858 22.2034 6.67677 21.9753 7 21.7241M9.39164 4.77373C9.58546 4.2662 9.79028 3.76778 10 3.30796M10 3.30796L7 21.7241M10 3.30796C10.2245 2.81566 10.4547 2.3676 10.6829 2M7 21.7241C7.29064 21.4981 7.58536 21.2535 7.87854 21M7.87854 21L10.6829 2M7.87854 21C8.25488 20.6745 8.62868 20.3343 8.98806 20M10.6829 2C10.8866 1.67201 11.0888 1.40806 11.2841 1.23388M11.2841 1.23388L8.98806 20M11.2841 1.23388C11.4528 1.08345 11.6164 0.999973 11.7715 1M8.98806 20C9.16979 19.8309 9.34782 19.6634 9.52064 19.5M9.52064 19.5L11.7715 1M9.52064 19.5C9.79965 19.2362 10.065 18.9833 10.3104 18.7524M10.3104 18.7524C10.5249 18.5505 10.7241 18.3655 10.9036 18.2049M10.9036 18.2049L12.8356 2.35971M12.8356 2.35971C12.9927 2.66456 13.1461 2.98374 13.2937 3.30796M13.2937 3.30796C13.4739 3.70344 13.6455 4.10642 13.805 4.5M12.4237 17.6674L13.805 4.5M12.4237 17.6674C12.6445 17.7409 12.8891 17.855 13.152 18M13.805 4.5C14.0203 5.03091 14.2136 5.54472 14.3761 6M14.3761 6C14.4517 6.21188 14.5207 6.41108 14.5822 6.59342C14.6744 6.86714 14.934 7.05942 15.2334 7.08525M14.3761 6L13.152 18M13.152 18C13.4068 18.1406 13.6787 18.3102 13.9625 18.5M15.2334 7.08525C15.2787 7.08915 15.3249 7.08925 15.3716 7.08525L16.7636 6.96583M15.2334 7.08525L13.9625 18.5M13.9625 18.5C14.1637 18.6345 14.3709 18.7791 14.5822 18.9306M14.5822 18.9306L16 7M14.5822 18.9306C14.7957 19.0837 15.0134 19.2439 15.2334 19.4079M16.7636 6.96583L15.2334 19.4079M16.7636 6.96583L17.2515 6.92397M15.2334 19.4079C15.4441 19.5648 15.6569 19.7253 15.8702 19.8864M15.8702 19.8864L17.2515 6.92397M15.8702 19.8864C16.1424 20.0919 16.4153 20.2985 16.6855 20.5M17.2515 6.92397L17.9474 6.86427M17.9474 6.86427L16.6855 20.5M17.9474 6.86427L18.6743 6.80191M16.6855 20.5C16.8759 20.642 17.065 20.7815 17.2515 20.9164M17.2515 20.9164C17.5389 21.1244 17.8201 21.3214 18.091 21.5M18.6743 15.1891L18.091 21.5M18.6743 15.1891C18.8251 15.5346 18.9841 15.9075 19.1439 16.2955M18.091 21.5C18.2918 21.6324 18.4869 21.7547 18.6743 21.8637M19.1439 16.2955L18.6743 21.8637M19.1439 16.2955C19.2785 16.6222 19.4136 16.9596 19.5448 17.3003M18.6743 21.8637C18.9129 22.0023 19.1391 22.1195 19.3494 22.2087M19.3494 22.2087C19.5875 22.3097 19.8051 22.375 19.9968 22.3951C20.0213 22.3976 20.045 22.3991 20.0679 22.3996M19.3494 22.2087L19.5448 17.3003M19.5448 17.3003C19.7314 17.7848 19.91 18.276 20.0679 18.7524M20.0679 18.7524C20.717 20.7109 21.0147 22.4205 20.0679 22.3996M20.0679 18.7524V22.3996M18.2466 12.1972L18.6743 6.80191M18.2466 12.1972C18.443 11.8723 18.7091 11.5226 19.0252 11.1594M18.6743 6.80191L19.3494 6.74399M19.3494 6.74399L19.0252 11.1594M19.3494 6.74399L19.9968 6.68845M19.0252 11.1594C19.1863 10.9743 19.3603 10.7857 19.5448 10.595M19.5448 10.595L19.9968 6.68845M19.5448 10.595C19.7627 10.3697 19.9952 10.1415 20.2379 9.91286M19.9968 6.68845L20.7009 6.62805M20.7009 6.62805L20.2379 9.91286M20.7009 6.62805L21.4313 6.56539M20.2379 9.91286C20.483 9.68191 20.7385 9.45054 21 9.22127M21 9.22127L21.4313 6.56539M21 9.22127C21.2101 9.03708 21.424 8.85424 21.6394 8.67408M21.4313 6.56539L22 6.5166M22 6.5166L22.1616 6.50274C22.3883 6.48329 22.5822 6.55362 22.7262 6.67353M22 6.5166L21.6394 8.67408M21.6394 8.67408C21.8728 8.47888 22.108 8.28681 22.342 8.09954M22.342 8.09954C22.4706 7.99667 22.5988 7.89525 22.7262 7.79555C23.1246 7.48374 23.0563 6.94838 22.7262 6.67353M22.342 8.09954L22.7262 6.67353" stroke="white"/>
</svg>
