<svg width="24" height="24" viewBox="0 0 24 24" fill="none" xmlns="http://www.w3.org/2000/svg">
<path d="M22.1616 6.50274L15.3716 7.08525C15.0163 7.11572 14.6884 6.90854 14.5822 6.59342C14.1138 5.20348 13.2072 2.8342 12.2544 1.33571C11.2231 -0.286408 9.43482 4.34132 8.53484 7.2758C8.44315 7.57476 8.15074 7.78195 7.815 7.79149C6.5183 7.82834 4.18525 7.98668 2.00719 8.42712C-1.18085 9.07179 4.05659 11.8654 5.87833 13.5845C7.70007 15.3036 2.46257 19.8164 3.60116 22.3951C4.73974 24.9738 10.205 18.527 11.5713 17.6674C12.9376 16.8079 17.9474 22.1802 19.9968 22.3951C22.0463 22.6099 18.8582 15.5185 17.9474 13.5845C17.3855 12.3916 20.2171 9.75926 22.7262 7.79555C23.2984 7.3477 22.9079 6.43871 22.1616 6.50274Z" stroke="white"/>
</svg>
