<svg
    xmlns="http://www.w3.org/2000/svg"
    width="32"
    height="32"
    viewBox="0 0 32 32"
    fill="none"
    >
    <g clip-path="url(#clip0_2895_645)">
        <mask
        id="mask0_2895_645"
        style="mask-type:luminance"
        maskUnits="userSpaceOnUse"
        x="0"
        y="0"
        width="32"
        height="32"
        >
        <path d="M32 0H0V32H32V0Z" fill="white" />
        </mask>
        <g mask="url(#mask0_2895_645)">
        <path
            d="M15.0414 7.32127C14.9869 6.84021 14.5802 6.47657 14.0961 6.47607C13.612 6.47558 13.2044 6.83838 13.149 7.31934C12.7883 10.4468 11.8532 12.6459 10.3447 14.1543C8.83629 15.6628 6.63718 16.5979 3.50976 16.9586C3.02881 17.014 2.66601 17.4215 2.6665 17.9056C2.667 18.3898 3.03064 18.7966 3.51169 18.851C6.58742 19.1994 8.83328 20.134 10.3775 21.6504C11.916 23.1611 12.8706 25.3596 13.1464 28.4651C13.1901 28.957 13.6024 29.3338 14.0961 29.3332C14.5898 29.3327 15.0013 28.9548 15.044 28.463C15.3082 25.4086 16.262 23.1638 17.8081 21.6176C19.3541 20.0715 21.599 19.1179 24.6534 18.8535C25.1453 18.811 25.523 18.3995 25.5237 17.9058C25.5242 17.412 25.1473 16.9998 24.6556 16.956C21.5501 16.6802 19.3514 15.7256 17.8408 14.1871C16.3245 12.6428 15.3898 10.397 15.0414 7.32127Z"
            fill="#9AE817"
        />
        <path
            d="M25.2569 2.99518C25.2357 2.8081 25.0775 2.66669 24.8893 2.6665C24.7009 2.66632 24.5425 2.8074 24.5209 2.99444C24.3806 4.21065 24.017 5.06586 23.4303 5.65249C22.8438 6.23912 21.9885 6.60274 20.7723 6.74302C20.5853 6.76458 20.4442 6.92305 20.4443 7.11133C20.4446 7.2996 20.5859 7.45777 20.773 7.47897C21.9691 7.61445 22.8426 7.97793 23.4431 8.56762C24.0414 9.15509 24.4126 10.0101 24.5199 11.2178C24.5369 11.4091 24.6973 11.5556 24.8893 11.5554C25.0813 11.5552 25.2413 11.4083 25.2578 11.217C25.3606 10.0292 25.7315 9.15614 26.3327 8.55489C26.9341 7.95362 27.807 7.58276 28.9949 7.47994C29.1861 7.46338 29.333 7.30337 29.3333 7.11137C29.3335 6.91936 29.1869 6.75902 28.9957 6.74202C27.7879 6.63476 26.933 6.26353 26.3455 5.66524C25.7558 5.06469 25.3923 4.1913 25.2569 2.99518Z"
            fill="#9AE817"
        />
        </g>
    </g>
    <defs>
        <clipPath id="clip0_2895_645">
        <rect width="32" height="32" fill="white" />
        </clipPath>
    </defs>
</svg>